%TF.GenerationSoftware,KiCad,Pcbnew,9.0.8-9.0.8~ubuntu24.04.1*%
%TF.CreationDate,2026-05-07T18:21:45+02:00*%
%TF.ProjectId,caelum_v2,6361656c-756d-45f7-9632-2e6b69636164,rev?*%
%TF.SameCoordinates,Original*%
%TF.FileFunction,Legend,Bot*%
%TF.FilePolarity,Positive*%
%FSLAX46Y46*%
G04 Gerber Fmt 4.6, Leading zero omitted, Abs format (unit mm)*
G04 Created by KiCad (PCBNEW 9.0.8-9.0.8~ubuntu24.04.1) date 2026-05-07 18:21:45*
%MOMM*%
%LPD*%
G01*
G04 APERTURE LIST*
%ADD10C,0.125000*%
%ADD11C,0.200000*%
%ADD12C,0.120000*%
G04 APERTURE END LIST*
D10*
X93465383Y-41857500D02*
X93351097Y-41895595D01*
X93351097Y-41895595D02*
X93160621Y-41895595D01*
X93160621Y-41895595D02*
X93084430Y-41857500D01*
X93084430Y-41857500D02*
X93046335Y-41819404D01*
X93046335Y-41819404D02*
X93008240Y-41743214D01*
X93008240Y-41743214D02*
X93008240Y-41667023D01*
X93008240Y-41667023D02*
X93046335Y-41590833D01*
X93046335Y-41590833D02*
X93084430Y-41552738D01*
X93084430Y-41552738D02*
X93160621Y-41514642D01*
X93160621Y-41514642D02*
X93313002Y-41476547D01*
X93313002Y-41476547D02*
X93389192Y-41438452D01*
X93389192Y-41438452D02*
X93427287Y-41400357D01*
X93427287Y-41400357D02*
X93465383Y-41324166D01*
X93465383Y-41324166D02*
X93465383Y-41247976D01*
X93465383Y-41247976D02*
X93427287Y-41171785D01*
X93427287Y-41171785D02*
X93389192Y-41133690D01*
X93389192Y-41133690D02*
X93313002Y-41095595D01*
X93313002Y-41095595D02*
X93122525Y-41095595D01*
X93122525Y-41095595D02*
X93008240Y-41133690D01*
X92665382Y-41895595D02*
X92665382Y-41362261D01*
X92665382Y-41095595D02*
X92703478Y-41133690D01*
X92703478Y-41133690D02*
X92665382Y-41171785D01*
X92665382Y-41171785D02*
X92627287Y-41133690D01*
X92627287Y-41133690D02*
X92665382Y-41095595D01*
X92665382Y-41095595D02*
X92665382Y-41171785D01*
X92322526Y-41171785D02*
X92284430Y-41133690D01*
X92284430Y-41133690D02*
X92208240Y-41095595D01*
X92208240Y-41095595D02*
X92017764Y-41095595D01*
X92017764Y-41095595D02*
X91941573Y-41133690D01*
X91941573Y-41133690D02*
X91903478Y-41171785D01*
X91903478Y-41171785D02*
X91865383Y-41247976D01*
X91865383Y-41247976D02*
X91865383Y-41324166D01*
X91865383Y-41324166D02*
X91903478Y-41438452D01*
X91903478Y-41438452D02*
X92360621Y-41895595D01*
X92360621Y-41895595D02*
X91865383Y-41895595D01*
X91598716Y-41095595D02*
X91103478Y-41095595D01*
X91103478Y-41095595D02*
X91370144Y-41400357D01*
X91370144Y-41400357D02*
X91255859Y-41400357D01*
X91255859Y-41400357D02*
X91179668Y-41438452D01*
X91179668Y-41438452D02*
X91141573Y-41476547D01*
X91141573Y-41476547D02*
X91103478Y-41552738D01*
X91103478Y-41552738D02*
X91103478Y-41743214D01*
X91103478Y-41743214D02*
X91141573Y-41819404D01*
X91141573Y-41819404D02*
X91179668Y-41857500D01*
X91179668Y-41857500D02*
X91255859Y-41895595D01*
X91255859Y-41895595D02*
X91484430Y-41895595D01*
X91484430Y-41895595D02*
X91560621Y-41857500D01*
X91560621Y-41857500D02*
X91598716Y-41819404D01*
X90798716Y-41171785D02*
X90760620Y-41133690D01*
X90760620Y-41133690D02*
X90684430Y-41095595D01*
X90684430Y-41095595D02*
X90493954Y-41095595D01*
X90493954Y-41095595D02*
X90417763Y-41133690D01*
X90417763Y-41133690D02*
X90379668Y-41171785D01*
X90379668Y-41171785D02*
X90341573Y-41247976D01*
X90341573Y-41247976D02*
X90341573Y-41324166D01*
X90341573Y-41324166D02*
X90379668Y-41438452D01*
X90379668Y-41438452D02*
X90836811Y-41895595D01*
X90836811Y-41895595D02*
X90341573Y-41895595D01*
X90074906Y-41095595D02*
X89579668Y-41095595D01*
X89579668Y-41095595D02*
X89846334Y-41400357D01*
X89846334Y-41400357D02*
X89732049Y-41400357D01*
X89732049Y-41400357D02*
X89655858Y-41438452D01*
X89655858Y-41438452D02*
X89617763Y-41476547D01*
X89617763Y-41476547D02*
X89579668Y-41552738D01*
X89579668Y-41552738D02*
X89579668Y-41743214D01*
X89579668Y-41743214D02*
X89617763Y-41819404D01*
X89617763Y-41819404D02*
X89655858Y-41857500D01*
X89655858Y-41857500D02*
X89732049Y-41895595D01*
X89732049Y-41895595D02*
X89960620Y-41895595D01*
X89960620Y-41895595D02*
X90036811Y-41857500D01*
X90036811Y-41857500D02*
X90074906Y-41819404D01*
X93565383Y-48671785D02*
X93527287Y-48633690D01*
X93527287Y-48633690D02*
X93451097Y-48595595D01*
X93451097Y-48595595D02*
X93260621Y-48595595D01*
X93260621Y-48595595D02*
X93184430Y-48633690D01*
X93184430Y-48633690D02*
X93146335Y-48671785D01*
X93146335Y-48671785D02*
X93108240Y-48747976D01*
X93108240Y-48747976D02*
X93108240Y-48824166D01*
X93108240Y-48824166D02*
X93146335Y-48938452D01*
X93146335Y-48938452D02*
X93603478Y-49395595D01*
X93603478Y-49395595D02*
X93108240Y-49395595D01*
X92803478Y-48671785D02*
X92765382Y-48633690D01*
X92765382Y-48633690D02*
X92689192Y-48595595D01*
X92689192Y-48595595D02*
X92498716Y-48595595D01*
X92498716Y-48595595D02*
X92422525Y-48633690D01*
X92422525Y-48633690D02*
X92384430Y-48671785D01*
X92384430Y-48671785D02*
X92346335Y-48747976D01*
X92346335Y-48747976D02*
X92346335Y-48824166D01*
X92346335Y-48824166D02*
X92384430Y-48938452D01*
X92384430Y-48938452D02*
X92841573Y-49395595D01*
X92841573Y-49395595D02*
X92346335Y-49395595D01*
X91851096Y-48595595D02*
X91774906Y-48595595D01*
X91774906Y-48595595D02*
X91698715Y-48633690D01*
X91698715Y-48633690D02*
X91660620Y-48671785D01*
X91660620Y-48671785D02*
X91622525Y-48747976D01*
X91622525Y-48747976D02*
X91584430Y-48900357D01*
X91584430Y-48900357D02*
X91584430Y-49090833D01*
X91584430Y-49090833D02*
X91622525Y-49243214D01*
X91622525Y-49243214D02*
X91660620Y-49319404D01*
X91660620Y-49319404D02*
X91698715Y-49357500D01*
X91698715Y-49357500D02*
X91774906Y-49395595D01*
X91774906Y-49395595D02*
X91851096Y-49395595D01*
X91851096Y-49395595D02*
X91927287Y-49357500D01*
X91927287Y-49357500D02*
X91965382Y-49319404D01*
X91965382Y-49319404D02*
X92003477Y-49243214D01*
X92003477Y-49243214D02*
X92041573Y-49090833D01*
X92041573Y-49090833D02*
X92041573Y-48900357D01*
X92041573Y-48900357D02*
X92003477Y-48747976D01*
X92003477Y-48747976D02*
X91965382Y-48671785D01*
X91965382Y-48671785D02*
X91927287Y-48633690D01*
X91927287Y-48633690D02*
X91851096Y-48595595D01*
X91241572Y-49395595D02*
X91241572Y-48595595D01*
X90784429Y-49395595D02*
X91127287Y-48938452D01*
X90784429Y-48595595D02*
X91241572Y-49052738D01*
X90479668Y-49395595D02*
X90289191Y-49395595D01*
X90289191Y-49395595D02*
X90289191Y-49243214D01*
X90289191Y-49243214D02*
X90365382Y-49205119D01*
X90365382Y-49205119D02*
X90441572Y-49128928D01*
X90441572Y-49128928D02*
X90479668Y-49014642D01*
X90479668Y-49014642D02*
X90479668Y-48824166D01*
X90479668Y-48824166D02*
X90441572Y-48709880D01*
X90441572Y-48709880D02*
X90365382Y-48633690D01*
X90365382Y-48633690D02*
X90251096Y-48595595D01*
X90251096Y-48595595D02*
X90098715Y-48595595D01*
X90098715Y-48595595D02*
X89984429Y-48633690D01*
X89984429Y-48633690D02*
X89908239Y-48709880D01*
X89908239Y-48709880D02*
X89870144Y-48824166D01*
X89870144Y-48824166D02*
X89870144Y-49014642D01*
X89870144Y-49014642D02*
X89908239Y-49128928D01*
X89908239Y-49128928D02*
X89984429Y-49205119D01*
X89984429Y-49205119D02*
X90060620Y-49243214D01*
X90060620Y-49243214D02*
X90060620Y-49395595D01*
X90060620Y-49395595D02*
X89870144Y-49395595D01*
X97608240Y-37995595D02*
X98065383Y-37995595D01*
X97836811Y-37995595D02*
X97836811Y-37195595D01*
X97836811Y-37195595D02*
X97913002Y-37309880D01*
X97913002Y-37309880D02*
X97989192Y-37386071D01*
X97989192Y-37386071D02*
X98065383Y-37424166D01*
X97113001Y-37195595D02*
X97036811Y-37195595D01*
X97036811Y-37195595D02*
X96960620Y-37233690D01*
X96960620Y-37233690D02*
X96922525Y-37271785D01*
X96922525Y-37271785D02*
X96884430Y-37347976D01*
X96884430Y-37347976D02*
X96846335Y-37500357D01*
X96846335Y-37500357D02*
X96846335Y-37690833D01*
X96846335Y-37690833D02*
X96884430Y-37843214D01*
X96884430Y-37843214D02*
X96922525Y-37919404D01*
X96922525Y-37919404D02*
X96960620Y-37957500D01*
X96960620Y-37957500D02*
X97036811Y-37995595D01*
X97036811Y-37995595D02*
X97113001Y-37995595D01*
X97113001Y-37995595D02*
X97189192Y-37957500D01*
X97189192Y-37957500D02*
X97227287Y-37919404D01*
X97227287Y-37919404D02*
X97265382Y-37843214D01*
X97265382Y-37843214D02*
X97303478Y-37690833D01*
X97303478Y-37690833D02*
X97303478Y-37500357D01*
X97303478Y-37500357D02*
X97265382Y-37347976D01*
X97265382Y-37347976D02*
X97227287Y-37271785D01*
X97227287Y-37271785D02*
X97189192Y-37233690D01*
X97189192Y-37233690D02*
X97113001Y-37195595D01*
X96351096Y-37195595D02*
X96274906Y-37195595D01*
X96274906Y-37195595D02*
X96198715Y-37233690D01*
X96198715Y-37233690D02*
X96160620Y-37271785D01*
X96160620Y-37271785D02*
X96122525Y-37347976D01*
X96122525Y-37347976D02*
X96084430Y-37500357D01*
X96084430Y-37500357D02*
X96084430Y-37690833D01*
X96084430Y-37690833D02*
X96122525Y-37843214D01*
X96122525Y-37843214D02*
X96160620Y-37919404D01*
X96160620Y-37919404D02*
X96198715Y-37957500D01*
X96198715Y-37957500D02*
X96274906Y-37995595D01*
X96274906Y-37995595D02*
X96351096Y-37995595D01*
X96351096Y-37995595D02*
X96427287Y-37957500D01*
X96427287Y-37957500D02*
X96465382Y-37919404D01*
X96465382Y-37919404D02*
X96503477Y-37843214D01*
X96503477Y-37843214D02*
X96541573Y-37690833D01*
X96541573Y-37690833D02*
X96541573Y-37500357D01*
X96541573Y-37500357D02*
X96503477Y-37347976D01*
X96503477Y-37347976D02*
X96465382Y-37271785D01*
X96465382Y-37271785D02*
X96427287Y-37233690D01*
X96427287Y-37233690D02*
X96351096Y-37195595D01*
X95779668Y-37995595D02*
X95589191Y-37995595D01*
X95589191Y-37995595D02*
X95589191Y-37843214D01*
X95589191Y-37843214D02*
X95665382Y-37805119D01*
X95665382Y-37805119D02*
X95741572Y-37728928D01*
X95741572Y-37728928D02*
X95779668Y-37614642D01*
X95779668Y-37614642D02*
X95779668Y-37424166D01*
X95779668Y-37424166D02*
X95741572Y-37309880D01*
X95741572Y-37309880D02*
X95665382Y-37233690D01*
X95665382Y-37233690D02*
X95551096Y-37195595D01*
X95551096Y-37195595D02*
X95398715Y-37195595D01*
X95398715Y-37195595D02*
X95284429Y-37233690D01*
X95284429Y-37233690D02*
X95208239Y-37309880D01*
X95208239Y-37309880D02*
X95170144Y-37424166D01*
X95170144Y-37424166D02*
X95170144Y-37614642D01*
X95170144Y-37614642D02*
X95208239Y-37728928D01*
X95208239Y-37728928D02*
X95284429Y-37805119D01*
X95284429Y-37805119D02*
X95360620Y-37843214D01*
X95360620Y-37843214D02*
X95360620Y-37995595D01*
X95360620Y-37995595D02*
X95170144Y-37995595D01*
X97860621Y-46276547D02*
X97746335Y-46314642D01*
X97746335Y-46314642D02*
X97708240Y-46352738D01*
X97708240Y-46352738D02*
X97670144Y-46428928D01*
X97670144Y-46428928D02*
X97670144Y-46543214D01*
X97670144Y-46543214D02*
X97708240Y-46619404D01*
X97708240Y-46619404D02*
X97746335Y-46657500D01*
X97746335Y-46657500D02*
X97822525Y-46695595D01*
X97822525Y-46695595D02*
X98127287Y-46695595D01*
X98127287Y-46695595D02*
X98127287Y-45895595D01*
X98127287Y-45895595D02*
X97860621Y-45895595D01*
X97860621Y-45895595D02*
X97784430Y-45933690D01*
X97784430Y-45933690D02*
X97746335Y-45971785D01*
X97746335Y-45971785D02*
X97708240Y-46047976D01*
X97708240Y-46047976D02*
X97708240Y-46124166D01*
X97708240Y-46124166D02*
X97746335Y-46200357D01*
X97746335Y-46200357D02*
X97784430Y-46238452D01*
X97784430Y-46238452D02*
X97860621Y-46276547D01*
X97860621Y-46276547D02*
X98127287Y-46276547D01*
X97365383Y-46657500D02*
X97251097Y-46695595D01*
X97251097Y-46695595D02*
X97060621Y-46695595D01*
X97060621Y-46695595D02*
X96984430Y-46657500D01*
X96984430Y-46657500D02*
X96946335Y-46619404D01*
X96946335Y-46619404D02*
X96908240Y-46543214D01*
X96908240Y-46543214D02*
X96908240Y-46467023D01*
X96908240Y-46467023D02*
X96946335Y-46390833D01*
X96946335Y-46390833D02*
X96984430Y-46352738D01*
X96984430Y-46352738D02*
X97060621Y-46314642D01*
X97060621Y-46314642D02*
X97213002Y-46276547D01*
X97213002Y-46276547D02*
X97289192Y-46238452D01*
X97289192Y-46238452D02*
X97327287Y-46200357D01*
X97327287Y-46200357D02*
X97365383Y-46124166D01*
X97365383Y-46124166D02*
X97365383Y-46047976D01*
X97365383Y-46047976D02*
X97327287Y-45971785D01*
X97327287Y-45971785D02*
X97289192Y-45933690D01*
X97289192Y-45933690D02*
X97213002Y-45895595D01*
X97213002Y-45895595D02*
X97022525Y-45895595D01*
X97022525Y-45895595D02*
X96908240Y-45933690D01*
X96603478Y-46657500D02*
X96489192Y-46695595D01*
X96489192Y-46695595D02*
X96298716Y-46695595D01*
X96298716Y-46695595D02*
X96222525Y-46657500D01*
X96222525Y-46657500D02*
X96184430Y-46619404D01*
X96184430Y-46619404D02*
X96146335Y-46543214D01*
X96146335Y-46543214D02*
X96146335Y-46467023D01*
X96146335Y-46467023D02*
X96184430Y-46390833D01*
X96184430Y-46390833D02*
X96222525Y-46352738D01*
X96222525Y-46352738D02*
X96298716Y-46314642D01*
X96298716Y-46314642D02*
X96451097Y-46276547D01*
X96451097Y-46276547D02*
X96527287Y-46238452D01*
X96527287Y-46238452D02*
X96565382Y-46200357D01*
X96565382Y-46200357D02*
X96603478Y-46124166D01*
X96603478Y-46124166D02*
X96603478Y-46047976D01*
X96603478Y-46047976D02*
X96565382Y-45971785D01*
X96565382Y-45971785D02*
X96527287Y-45933690D01*
X96527287Y-45933690D02*
X96451097Y-45895595D01*
X96451097Y-45895595D02*
X96260620Y-45895595D01*
X96260620Y-45895595D02*
X96146335Y-45933690D01*
X95384430Y-46695595D02*
X95841573Y-46695595D01*
X95613001Y-46695595D02*
X95613001Y-45895595D01*
X95613001Y-45895595D02*
X95689192Y-46009880D01*
X95689192Y-46009880D02*
X95765382Y-46086071D01*
X95765382Y-46086071D02*
X95841573Y-46124166D01*
X95117763Y-45895595D02*
X94622525Y-45895595D01*
X94622525Y-45895595D02*
X94889191Y-46200357D01*
X94889191Y-46200357D02*
X94774906Y-46200357D01*
X94774906Y-46200357D02*
X94698715Y-46238452D01*
X94698715Y-46238452D02*
X94660620Y-46276547D01*
X94660620Y-46276547D02*
X94622525Y-46352738D01*
X94622525Y-46352738D02*
X94622525Y-46543214D01*
X94622525Y-46543214D02*
X94660620Y-46619404D01*
X94660620Y-46619404D02*
X94698715Y-46657500D01*
X94698715Y-46657500D02*
X94774906Y-46695595D01*
X94774906Y-46695595D02*
X95003477Y-46695595D01*
X95003477Y-46695595D02*
X95079668Y-46657500D01*
X95079668Y-46657500D02*
X95117763Y-46619404D01*
X94165382Y-46238452D02*
X94241572Y-46200357D01*
X94241572Y-46200357D02*
X94279667Y-46162261D01*
X94279667Y-46162261D02*
X94317763Y-46086071D01*
X94317763Y-46086071D02*
X94317763Y-46047976D01*
X94317763Y-46047976D02*
X94279667Y-45971785D01*
X94279667Y-45971785D02*
X94241572Y-45933690D01*
X94241572Y-45933690D02*
X94165382Y-45895595D01*
X94165382Y-45895595D02*
X94013001Y-45895595D01*
X94013001Y-45895595D02*
X93936810Y-45933690D01*
X93936810Y-45933690D02*
X93898715Y-45971785D01*
X93898715Y-45971785D02*
X93860620Y-46047976D01*
X93860620Y-46047976D02*
X93860620Y-46086071D01*
X93860620Y-46086071D02*
X93898715Y-46162261D01*
X93898715Y-46162261D02*
X93936810Y-46200357D01*
X93936810Y-46200357D02*
X94013001Y-46238452D01*
X94013001Y-46238452D02*
X94165382Y-46238452D01*
X94165382Y-46238452D02*
X94241572Y-46276547D01*
X94241572Y-46276547D02*
X94279667Y-46314642D01*
X94279667Y-46314642D02*
X94317763Y-46390833D01*
X94317763Y-46390833D02*
X94317763Y-46543214D01*
X94317763Y-46543214D02*
X94279667Y-46619404D01*
X94279667Y-46619404D02*
X94241572Y-46657500D01*
X94241572Y-46657500D02*
X94165382Y-46695595D01*
X94165382Y-46695595D02*
X94013001Y-46695595D01*
X94013001Y-46695595D02*
X93936810Y-46657500D01*
X93936810Y-46657500D02*
X93898715Y-46619404D01*
X93898715Y-46619404D02*
X93860620Y-46543214D01*
X93860620Y-46543214D02*
X93860620Y-46390833D01*
X93860620Y-46390833D02*
X93898715Y-46314642D01*
X93898715Y-46314642D02*
X93936810Y-46276547D01*
X93936810Y-46276547D02*
X94013001Y-46238452D01*
X87904404Y-35408240D02*
X87904404Y-35865383D01*
X87904404Y-35636811D02*
X88704404Y-35636811D01*
X88704404Y-35636811D02*
X88590119Y-35713002D01*
X88590119Y-35713002D02*
X88513928Y-35789192D01*
X88513928Y-35789192D02*
X88475833Y-35865383D01*
X88704404Y-34913001D02*
X88704404Y-34836811D01*
X88704404Y-34836811D02*
X88666309Y-34760620D01*
X88666309Y-34760620D02*
X88628214Y-34722525D01*
X88628214Y-34722525D02*
X88552023Y-34684430D01*
X88552023Y-34684430D02*
X88399642Y-34646335D01*
X88399642Y-34646335D02*
X88209166Y-34646335D01*
X88209166Y-34646335D02*
X88056785Y-34684430D01*
X88056785Y-34684430D02*
X87980595Y-34722525D01*
X87980595Y-34722525D02*
X87942500Y-34760620D01*
X87942500Y-34760620D02*
X87904404Y-34836811D01*
X87904404Y-34836811D02*
X87904404Y-34913001D01*
X87904404Y-34913001D02*
X87942500Y-34989192D01*
X87942500Y-34989192D02*
X87980595Y-35027287D01*
X87980595Y-35027287D02*
X88056785Y-35065382D01*
X88056785Y-35065382D02*
X88209166Y-35103478D01*
X88209166Y-35103478D02*
X88399642Y-35103478D01*
X88399642Y-35103478D02*
X88552023Y-35065382D01*
X88552023Y-35065382D02*
X88628214Y-35027287D01*
X88628214Y-35027287D02*
X88666309Y-34989192D01*
X88666309Y-34989192D02*
X88704404Y-34913001D01*
X87904404Y-34303477D02*
X88704404Y-34303477D01*
X87904404Y-33846334D02*
X88361547Y-34189192D01*
X88704404Y-33846334D02*
X88247261Y-34303477D01*
X87904404Y-33541573D02*
X87904404Y-33351096D01*
X87904404Y-33351096D02*
X88056785Y-33351096D01*
X88056785Y-33351096D02*
X88094880Y-33427287D01*
X88094880Y-33427287D02*
X88171071Y-33503477D01*
X88171071Y-33503477D02*
X88285357Y-33541573D01*
X88285357Y-33541573D02*
X88475833Y-33541573D01*
X88475833Y-33541573D02*
X88590119Y-33503477D01*
X88590119Y-33503477D02*
X88666309Y-33427287D01*
X88666309Y-33427287D02*
X88704404Y-33313001D01*
X88704404Y-33313001D02*
X88704404Y-33160620D01*
X88704404Y-33160620D02*
X88666309Y-33046334D01*
X88666309Y-33046334D02*
X88590119Y-32970144D01*
X88590119Y-32970144D02*
X88475833Y-32932049D01*
X88475833Y-32932049D02*
X88285357Y-32932049D01*
X88285357Y-32932049D02*
X88171071Y-32970144D01*
X88171071Y-32970144D02*
X88094880Y-33046334D01*
X88094880Y-33046334D02*
X88056785Y-33122525D01*
X88056785Y-33122525D02*
X87904404Y-33122525D01*
X87904404Y-33122525D02*
X87904404Y-32932049D01*
X92128214Y-35765383D02*
X92166309Y-35727287D01*
X92166309Y-35727287D02*
X92204404Y-35651097D01*
X92204404Y-35651097D02*
X92204404Y-35460621D01*
X92204404Y-35460621D02*
X92166309Y-35384430D01*
X92166309Y-35384430D02*
X92128214Y-35346335D01*
X92128214Y-35346335D02*
X92052023Y-35308240D01*
X92052023Y-35308240D02*
X91975833Y-35308240D01*
X91975833Y-35308240D02*
X91861547Y-35346335D01*
X91861547Y-35346335D02*
X91404404Y-35803478D01*
X91404404Y-35803478D02*
X91404404Y-35308240D01*
X92128214Y-35003478D02*
X92166309Y-34965382D01*
X92166309Y-34965382D02*
X92204404Y-34889192D01*
X92204404Y-34889192D02*
X92204404Y-34698716D01*
X92204404Y-34698716D02*
X92166309Y-34622525D01*
X92166309Y-34622525D02*
X92128214Y-34584430D01*
X92128214Y-34584430D02*
X92052023Y-34546335D01*
X92052023Y-34546335D02*
X91975833Y-34546335D01*
X91975833Y-34546335D02*
X91861547Y-34584430D01*
X91861547Y-34584430D02*
X91404404Y-35041573D01*
X91404404Y-35041573D02*
X91404404Y-34546335D01*
X91404404Y-34203477D02*
X92204404Y-34203477D01*
X91404404Y-33746334D02*
X91861547Y-34089192D01*
X92204404Y-33746334D02*
X91747261Y-34203477D01*
X91404404Y-33441573D02*
X91404404Y-33251096D01*
X91404404Y-33251096D02*
X91556785Y-33251096D01*
X91556785Y-33251096D02*
X91594880Y-33327287D01*
X91594880Y-33327287D02*
X91671071Y-33403477D01*
X91671071Y-33403477D02*
X91785357Y-33441573D01*
X91785357Y-33441573D02*
X91975833Y-33441573D01*
X91975833Y-33441573D02*
X92090119Y-33403477D01*
X92090119Y-33403477D02*
X92166309Y-33327287D01*
X92166309Y-33327287D02*
X92204404Y-33213001D01*
X92204404Y-33213001D02*
X92204404Y-33060620D01*
X92204404Y-33060620D02*
X92166309Y-32946334D01*
X92166309Y-32946334D02*
X92090119Y-32870144D01*
X92090119Y-32870144D02*
X91975833Y-32832049D01*
X91975833Y-32832049D02*
X91785357Y-32832049D01*
X91785357Y-32832049D02*
X91671071Y-32870144D01*
X91671071Y-32870144D02*
X91594880Y-32946334D01*
X91594880Y-32946334D02*
X91556785Y-33022525D01*
X91556785Y-33022525D02*
X91404404Y-33022525D01*
X91404404Y-33022525D02*
X91404404Y-32832049D01*
X95604404Y-35774906D02*
X95604404Y-35698716D01*
X95604404Y-35698716D02*
X95566309Y-35622525D01*
X95566309Y-35622525D02*
X95528214Y-35584430D01*
X95528214Y-35584430D02*
X95452023Y-35546335D01*
X95452023Y-35546335D02*
X95299642Y-35508240D01*
X95299642Y-35508240D02*
X95109166Y-35508240D01*
X95109166Y-35508240D02*
X94956785Y-35546335D01*
X94956785Y-35546335D02*
X94880595Y-35584430D01*
X94880595Y-35584430D02*
X94842500Y-35622525D01*
X94842500Y-35622525D02*
X94804404Y-35698716D01*
X94804404Y-35698716D02*
X94804404Y-35774906D01*
X94804404Y-35774906D02*
X94842500Y-35851097D01*
X94842500Y-35851097D02*
X94880595Y-35889192D01*
X94880595Y-35889192D02*
X94956785Y-35927287D01*
X94956785Y-35927287D02*
X95109166Y-35965383D01*
X95109166Y-35965383D02*
X95299642Y-35965383D01*
X95299642Y-35965383D02*
X95452023Y-35927287D01*
X95452023Y-35927287D02*
X95528214Y-35889192D01*
X95528214Y-35889192D02*
X95566309Y-35851097D01*
X95566309Y-35851097D02*
X95604404Y-35774906D01*
X94880595Y-35165382D02*
X94842500Y-35127287D01*
X94842500Y-35127287D02*
X94804404Y-35165382D01*
X94804404Y-35165382D02*
X94842500Y-35203478D01*
X94842500Y-35203478D02*
X94880595Y-35165382D01*
X94880595Y-35165382D02*
X94804404Y-35165382D01*
X94804404Y-34365383D02*
X94804404Y-34822526D01*
X94804404Y-34593954D02*
X95604404Y-34593954D01*
X95604404Y-34593954D02*
X95490119Y-34670145D01*
X95490119Y-34670145D02*
X95413928Y-34746335D01*
X95413928Y-34746335D02*
X95375833Y-34822526D01*
X95337738Y-34022525D02*
X94537738Y-34022525D01*
X94918690Y-33641573D02*
X94842500Y-33603478D01*
X94842500Y-33603478D02*
X94804404Y-33527287D01*
X94918690Y-34022525D02*
X94842500Y-33984430D01*
X94842500Y-33984430D02*
X94804404Y-33908240D01*
X94804404Y-33908240D02*
X94804404Y-33755859D01*
X94804404Y-33755859D02*
X94842500Y-33679668D01*
X94842500Y-33679668D02*
X94918690Y-33641573D01*
X94918690Y-33641573D02*
X95337738Y-33641573D01*
X95223452Y-32917764D02*
X95223452Y-33184430D01*
X94804404Y-33184430D02*
X95604404Y-33184430D01*
X95604404Y-33184430D02*
X95604404Y-32803478D01*
X108304404Y-33408240D02*
X108304404Y-33865383D01*
X108304404Y-33636811D02*
X109104404Y-33636811D01*
X109104404Y-33636811D02*
X108990119Y-33713002D01*
X108990119Y-33713002D02*
X108913928Y-33789192D01*
X108913928Y-33789192D02*
X108875833Y-33865383D01*
X109104404Y-32913001D02*
X109104404Y-32836811D01*
X109104404Y-32836811D02*
X109066309Y-32760620D01*
X109066309Y-32760620D02*
X109028214Y-32722525D01*
X109028214Y-32722525D02*
X108952023Y-32684430D01*
X108952023Y-32684430D02*
X108799642Y-32646335D01*
X108799642Y-32646335D02*
X108609166Y-32646335D01*
X108609166Y-32646335D02*
X108456785Y-32684430D01*
X108456785Y-32684430D02*
X108380595Y-32722525D01*
X108380595Y-32722525D02*
X108342500Y-32760620D01*
X108342500Y-32760620D02*
X108304404Y-32836811D01*
X108304404Y-32836811D02*
X108304404Y-32913001D01*
X108304404Y-32913001D02*
X108342500Y-32989192D01*
X108342500Y-32989192D02*
X108380595Y-33027287D01*
X108380595Y-33027287D02*
X108456785Y-33065382D01*
X108456785Y-33065382D02*
X108609166Y-33103478D01*
X108609166Y-33103478D02*
X108799642Y-33103478D01*
X108799642Y-33103478D02*
X108952023Y-33065382D01*
X108952023Y-33065382D02*
X109028214Y-33027287D01*
X109028214Y-33027287D02*
X109066309Y-32989192D01*
X109066309Y-32989192D02*
X109104404Y-32913001D01*
X109104404Y-32151096D02*
X109104404Y-32074906D01*
X109104404Y-32074906D02*
X109066309Y-31998715D01*
X109066309Y-31998715D02*
X109028214Y-31960620D01*
X109028214Y-31960620D02*
X108952023Y-31922525D01*
X108952023Y-31922525D02*
X108799642Y-31884430D01*
X108799642Y-31884430D02*
X108609166Y-31884430D01*
X108609166Y-31884430D02*
X108456785Y-31922525D01*
X108456785Y-31922525D02*
X108380595Y-31960620D01*
X108380595Y-31960620D02*
X108342500Y-31998715D01*
X108342500Y-31998715D02*
X108304404Y-32074906D01*
X108304404Y-32074906D02*
X108304404Y-32151096D01*
X108304404Y-32151096D02*
X108342500Y-32227287D01*
X108342500Y-32227287D02*
X108380595Y-32265382D01*
X108380595Y-32265382D02*
X108456785Y-32303477D01*
X108456785Y-32303477D02*
X108609166Y-32341573D01*
X108609166Y-32341573D02*
X108799642Y-32341573D01*
X108799642Y-32341573D02*
X108952023Y-32303477D01*
X108952023Y-32303477D02*
X109028214Y-32265382D01*
X109028214Y-32265382D02*
X109066309Y-32227287D01*
X109066309Y-32227287D02*
X109104404Y-32151096D01*
X108304404Y-31541572D02*
X109104404Y-31541572D01*
X108304404Y-31084429D02*
X108761547Y-31427287D01*
X109104404Y-31084429D02*
X108647261Y-31541572D01*
X108304404Y-30779668D02*
X108304404Y-30589191D01*
X108304404Y-30589191D02*
X108456785Y-30589191D01*
X108456785Y-30589191D02*
X108494880Y-30665382D01*
X108494880Y-30665382D02*
X108571071Y-30741572D01*
X108571071Y-30741572D02*
X108685357Y-30779668D01*
X108685357Y-30779668D02*
X108875833Y-30779668D01*
X108875833Y-30779668D02*
X108990119Y-30741572D01*
X108990119Y-30741572D02*
X109066309Y-30665382D01*
X109066309Y-30665382D02*
X109104404Y-30551096D01*
X109104404Y-30551096D02*
X109104404Y-30398715D01*
X109104404Y-30398715D02*
X109066309Y-30284429D01*
X109066309Y-30284429D02*
X108990119Y-30208239D01*
X108990119Y-30208239D02*
X108875833Y-30170144D01*
X108875833Y-30170144D02*
X108685357Y-30170144D01*
X108685357Y-30170144D02*
X108571071Y-30208239D01*
X108571071Y-30208239D02*
X108494880Y-30284429D01*
X108494880Y-30284429D02*
X108456785Y-30360620D01*
X108456785Y-30360620D02*
X108304404Y-30360620D01*
X108304404Y-30360620D02*
X108304404Y-30170144D01*
X83174906Y-42371119D02*
X82555859Y-42371119D01*
X82555859Y-42371119D02*
X82889192Y-42752071D01*
X82889192Y-42752071D02*
X82746335Y-42752071D01*
X82746335Y-42752071D02*
X82651097Y-42799690D01*
X82651097Y-42799690D02*
X82603478Y-42847309D01*
X82603478Y-42847309D02*
X82555859Y-42942547D01*
X82555859Y-42942547D02*
X82555859Y-43180642D01*
X82555859Y-43180642D02*
X82603478Y-43275880D01*
X82603478Y-43275880D02*
X82651097Y-43323500D01*
X82651097Y-43323500D02*
X82746335Y-43371119D01*
X82746335Y-43371119D02*
X83032049Y-43371119D01*
X83032049Y-43371119D02*
X83127287Y-43323500D01*
X83127287Y-43323500D02*
X83174906Y-43275880D01*
X82270144Y-42371119D02*
X81936811Y-43371119D01*
X81936811Y-43371119D02*
X81603478Y-42371119D01*
X81365382Y-42371119D02*
X80746335Y-42371119D01*
X80746335Y-42371119D02*
X81079668Y-42752071D01*
X81079668Y-42752071D02*
X80936811Y-42752071D01*
X80936811Y-42752071D02*
X80841573Y-42799690D01*
X80841573Y-42799690D02*
X80793954Y-42847309D01*
X80793954Y-42847309D02*
X80746335Y-42942547D01*
X80746335Y-42942547D02*
X80746335Y-43180642D01*
X80746335Y-43180642D02*
X80793954Y-43275880D01*
X80793954Y-43275880D02*
X80841573Y-43323500D01*
X80841573Y-43323500D02*
X80936811Y-43371119D01*
X80936811Y-43371119D02*
X81222525Y-43371119D01*
X81222525Y-43371119D02*
X81317763Y-43323500D01*
X81317763Y-43323500D02*
X81365382Y-43275880D01*
X82655859Y-44718738D02*
X82751097Y-44671119D01*
X82751097Y-44671119D02*
X82893954Y-44671119D01*
X82893954Y-44671119D02*
X83036811Y-44718738D01*
X83036811Y-44718738D02*
X83132049Y-44813976D01*
X83132049Y-44813976D02*
X83179668Y-44909214D01*
X83179668Y-44909214D02*
X83227287Y-45099690D01*
X83227287Y-45099690D02*
X83227287Y-45242547D01*
X83227287Y-45242547D02*
X83179668Y-45433023D01*
X83179668Y-45433023D02*
X83132049Y-45528261D01*
X83132049Y-45528261D02*
X83036811Y-45623500D01*
X83036811Y-45623500D02*
X82893954Y-45671119D01*
X82893954Y-45671119D02*
X82798716Y-45671119D01*
X82798716Y-45671119D02*
X82655859Y-45623500D01*
X82655859Y-45623500D02*
X82608240Y-45575880D01*
X82608240Y-45575880D02*
X82608240Y-45242547D01*
X82608240Y-45242547D02*
X82798716Y-45242547D01*
X82179668Y-45671119D02*
X82179668Y-44671119D01*
X82179668Y-44671119D02*
X81608240Y-45671119D01*
X81608240Y-45671119D02*
X81608240Y-44671119D01*
X81132049Y-45671119D02*
X81132049Y-44671119D01*
X81132049Y-44671119D02*
X80893954Y-44671119D01*
X80893954Y-44671119D02*
X80751097Y-44718738D01*
X80751097Y-44718738D02*
X80655859Y-44813976D01*
X80655859Y-44813976D02*
X80608240Y-44909214D01*
X80608240Y-44909214D02*
X80560621Y-45099690D01*
X80560621Y-45099690D02*
X80560621Y-45242547D01*
X80560621Y-45242547D02*
X80608240Y-45433023D01*
X80608240Y-45433023D02*
X80655859Y-45528261D01*
X80655859Y-45528261D02*
X80751097Y-45623500D01*
X80751097Y-45623500D02*
X80893954Y-45671119D01*
X80893954Y-45671119D02*
X81132049Y-45671119D01*
D11*
X108421993Y-62821524D02*
X108479136Y-62878667D01*
X108479136Y-62878667D02*
X108650564Y-62935809D01*
X108650564Y-62935809D02*
X108764850Y-62935809D01*
X108764850Y-62935809D02*
X108936279Y-62878667D01*
X108936279Y-62878667D02*
X109050564Y-62764381D01*
X109050564Y-62764381D02*
X109107707Y-62650095D01*
X109107707Y-62650095D02*
X109164850Y-62421524D01*
X109164850Y-62421524D02*
X109164850Y-62250095D01*
X109164850Y-62250095D02*
X109107707Y-62021524D01*
X109107707Y-62021524D02*
X109050564Y-61907238D01*
X109050564Y-61907238D02*
X108936279Y-61792952D01*
X108936279Y-61792952D02*
X108764850Y-61735809D01*
X108764850Y-61735809D02*
X108650564Y-61735809D01*
X108650564Y-61735809D02*
X108479136Y-61792952D01*
X108479136Y-61792952D02*
X108421993Y-61850095D01*
X107964850Y-62592952D02*
X107393422Y-62592952D01*
X108079136Y-62935809D02*
X107679136Y-61735809D01*
X107679136Y-61735809D02*
X107279136Y-62935809D01*
X106879136Y-62307238D02*
X106479136Y-62307238D01*
X106307708Y-62935809D02*
X106879136Y-62935809D01*
X106879136Y-62935809D02*
X106879136Y-61735809D01*
X106879136Y-61735809D02*
X106307708Y-61735809D01*
X105221994Y-62935809D02*
X105793422Y-62935809D01*
X105793422Y-62935809D02*
X105793422Y-61735809D01*
X104821993Y-61735809D02*
X104821993Y-62707238D01*
X104821993Y-62707238D02*
X104764850Y-62821524D01*
X104764850Y-62821524D02*
X104707708Y-62878667D01*
X104707708Y-62878667D02*
X104593422Y-62935809D01*
X104593422Y-62935809D02*
X104364850Y-62935809D01*
X104364850Y-62935809D02*
X104250565Y-62878667D01*
X104250565Y-62878667D02*
X104193422Y-62821524D01*
X104193422Y-62821524D02*
X104136279Y-62707238D01*
X104136279Y-62707238D02*
X104136279Y-61735809D01*
X103564850Y-62935809D02*
X103564850Y-61735809D01*
X103564850Y-61735809D02*
X103164850Y-62592952D01*
X103164850Y-62592952D02*
X102764850Y-61735809D01*
X102764850Y-61735809D02*
X102764850Y-62935809D01*
X101279135Y-62478667D02*
X100364850Y-62478667D01*
X98993421Y-62135809D02*
X98707707Y-62935809D01*
X98707707Y-62935809D02*
X98421992Y-62135809D01*
X98021992Y-61850095D02*
X97964849Y-61792952D01*
X97964849Y-61792952D02*
X97850564Y-61735809D01*
X97850564Y-61735809D02*
X97564849Y-61735809D01*
X97564849Y-61735809D02*
X97450564Y-61792952D01*
X97450564Y-61792952D02*
X97393421Y-61850095D01*
X97393421Y-61850095D02*
X97336278Y-61964381D01*
X97336278Y-61964381D02*
X97336278Y-62078667D01*
X97336278Y-62078667D02*
X97393421Y-62250095D01*
X97393421Y-62250095D02*
X98079135Y-62935809D01*
X98079135Y-62935809D02*
X97336278Y-62935809D01*
X96821992Y-62821524D02*
X96764849Y-62878667D01*
X96764849Y-62878667D02*
X96821992Y-62935809D01*
X96821992Y-62935809D02*
X96879135Y-62878667D01*
X96879135Y-62878667D02*
X96821992Y-62821524D01*
X96821992Y-62821524D02*
X96821992Y-62935809D01*
X96021992Y-61735809D02*
X95907706Y-61735809D01*
X95907706Y-61735809D02*
X95793420Y-61792952D01*
X95793420Y-61792952D02*
X95736278Y-61850095D01*
X95736278Y-61850095D02*
X95679135Y-61964381D01*
X95679135Y-61964381D02*
X95621992Y-62192952D01*
X95621992Y-62192952D02*
X95621992Y-62478667D01*
X95621992Y-62478667D02*
X95679135Y-62707238D01*
X95679135Y-62707238D02*
X95736278Y-62821524D01*
X95736278Y-62821524D02*
X95793420Y-62878667D01*
X95793420Y-62878667D02*
X95907706Y-62935809D01*
X95907706Y-62935809D02*
X96021992Y-62935809D01*
X96021992Y-62935809D02*
X96136278Y-62878667D01*
X96136278Y-62878667D02*
X96193420Y-62821524D01*
X96193420Y-62821524D02*
X96250563Y-62707238D01*
X96250563Y-62707238D02*
X96307706Y-62478667D01*
X96307706Y-62478667D02*
X96307706Y-62192952D01*
X96307706Y-62192952D02*
X96250563Y-61964381D01*
X96250563Y-61964381D02*
X96193420Y-61850095D01*
X96193420Y-61850095D02*
X96136278Y-61792952D01*
X96136278Y-61792952D02*
X96021992Y-61735809D01*
X109164850Y-64524885D02*
X108593422Y-64524885D01*
X109279136Y-64867742D02*
X108879136Y-63667742D01*
X108879136Y-63667742D02*
X108479136Y-64867742D01*
X107564851Y-64067742D02*
X107564851Y-64867742D01*
X108079136Y-64067742D02*
X108079136Y-64696314D01*
X108079136Y-64696314D02*
X108021993Y-64810600D01*
X108021993Y-64810600D02*
X107907708Y-64867742D01*
X107907708Y-64867742D02*
X107736279Y-64867742D01*
X107736279Y-64867742D02*
X107621993Y-64810600D01*
X107621993Y-64810600D02*
X107564851Y-64753457D01*
X107164851Y-64067742D02*
X106707708Y-64067742D01*
X106993422Y-63667742D02*
X106993422Y-64696314D01*
X106993422Y-64696314D02*
X106936279Y-64810600D01*
X106936279Y-64810600D02*
X106821994Y-64867742D01*
X106821994Y-64867742D02*
X106707708Y-64867742D01*
X106307708Y-64867742D02*
X106307708Y-63667742D01*
X105793423Y-64867742D02*
X105793423Y-64239171D01*
X105793423Y-64239171D02*
X105850565Y-64124885D01*
X105850565Y-64124885D02*
X105964851Y-64067742D01*
X105964851Y-64067742D02*
X106136280Y-64067742D01*
X106136280Y-64067742D02*
X106250565Y-64124885D01*
X106250565Y-64124885D02*
X106307708Y-64182028D01*
X105050566Y-64867742D02*
X105164851Y-64810600D01*
X105164851Y-64810600D02*
X105221994Y-64753457D01*
X105221994Y-64753457D02*
X105279137Y-64639171D01*
X105279137Y-64639171D02*
X105279137Y-64296314D01*
X105279137Y-64296314D02*
X105221994Y-64182028D01*
X105221994Y-64182028D02*
X105164851Y-64124885D01*
X105164851Y-64124885D02*
X105050566Y-64067742D01*
X105050566Y-64067742D02*
X104879137Y-64067742D01*
X104879137Y-64067742D02*
X104764851Y-64124885D01*
X104764851Y-64124885D02*
X104707709Y-64182028D01*
X104707709Y-64182028D02*
X104650566Y-64296314D01*
X104650566Y-64296314D02*
X104650566Y-64639171D01*
X104650566Y-64639171D02*
X104707709Y-64753457D01*
X104707709Y-64753457D02*
X104764851Y-64810600D01*
X104764851Y-64810600D02*
X104879137Y-64867742D01*
X104879137Y-64867742D02*
X105050566Y-64867742D01*
X104136280Y-64867742D02*
X104136280Y-64067742D01*
X104136280Y-64296314D02*
X104079137Y-64182028D01*
X104079137Y-64182028D02*
X104021995Y-64124885D01*
X104021995Y-64124885D02*
X103907709Y-64067742D01*
X103907709Y-64067742D02*
X103793423Y-64067742D01*
X103393423Y-64753457D02*
X103336280Y-64810600D01*
X103336280Y-64810600D02*
X103393423Y-64867742D01*
X103393423Y-64867742D02*
X103450566Y-64810600D01*
X103450566Y-64810600D02*
X103393423Y-64753457D01*
X103393423Y-64753457D02*
X103393423Y-64867742D01*
X103393423Y-64124885D02*
X103336280Y-64182028D01*
X103336280Y-64182028D02*
X103393423Y-64239171D01*
X103393423Y-64239171D02*
X103450566Y-64182028D01*
X103450566Y-64182028D02*
X103393423Y-64124885D01*
X103393423Y-64124885D02*
X103393423Y-64239171D01*
X101507708Y-64239171D02*
X101907708Y-64239171D01*
X101907708Y-64867742D02*
X101907708Y-63667742D01*
X101907708Y-63667742D02*
X101336280Y-63667742D01*
X100364852Y-64867742D02*
X100364852Y-64239171D01*
X100364852Y-64239171D02*
X100421994Y-64124885D01*
X100421994Y-64124885D02*
X100536280Y-64067742D01*
X100536280Y-64067742D02*
X100764852Y-64067742D01*
X100764852Y-64067742D02*
X100879137Y-64124885D01*
X100364852Y-64810600D02*
X100479137Y-64867742D01*
X100479137Y-64867742D02*
X100764852Y-64867742D01*
X100764852Y-64867742D02*
X100879137Y-64810600D01*
X100879137Y-64810600D02*
X100936280Y-64696314D01*
X100936280Y-64696314D02*
X100936280Y-64582028D01*
X100936280Y-64582028D02*
X100879137Y-64467742D01*
X100879137Y-64467742D02*
X100764852Y-64410600D01*
X100764852Y-64410600D02*
X100479137Y-64410600D01*
X100479137Y-64410600D02*
X100364852Y-64353457D01*
X99793423Y-64867742D02*
X99793423Y-63667742D01*
X99793423Y-64124885D02*
X99679138Y-64067742D01*
X99679138Y-64067742D02*
X99450566Y-64067742D01*
X99450566Y-64067742D02*
X99336280Y-64124885D01*
X99336280Y-64124885D02*
X99279138Y-64182028D01*
X99279138Y-64182028D02*
X99221995Y-64296314D01*
X99221995Y-64296314D02*
X99221995Y-64639171D01*
X99221995Y-64639171D02*
X99279138Y-64753457D01*
X99279138Y-64753457D02*
X99336280Y-64810600D01*
X99336280Y-64810600D02*
X99450566Y-64867742D01*
X99450566Y-64867742D02*
X99679138Y-64867742D01*
X99679138Y-64867742D02*
X99793423Y-64810600D01*
X98707709Y-64867742D02*
X98707709Y-64067742D01*
X98707709Y-63667742D02*
X98764852Y-63724885D01*
X98764852Y-63724885D02*
X98707709Y-63782028D01*
X98707709Y-63782028D02*
X98650566Y-63724885D01*
X98650566Y-63724885D02*
X98707709Y-63667742D01*
X98707709Y-63667742D02*
X98707709Y-63782028D01*
X97621995Y-64867742D02*
X97621995Y-64239171D01*
X97621995Y-64239171D02*
X97679137Y-64124885D01*
X97679137Y-64124885D02*
X97793423Y-64067742D01*
X97793423Y-64067742D02*
X98021995Y-64067742D01*
X98021995Y-64067742D02*
X98136280Y-64124885D01*
X97621995Y-64810600D02*
X97736280Y-64867742D01*
X97736280Y-64867742D02*
X98021995Y-64867742D01*
X98021995Y-64867742D02*
X98136280Y-64810600D01*
X98136280Y-64810600D02*
X98193423Y-64696314D01*
X98193423Y-64696314D02*
X98193423Y-64582028D01*
X98193423Y-64582028D02*
X98136280Y-64467742D01*
X98136280Y-64467742D02*
X98021995Y-64410600D01*
X98021995Y-64410600D02*
X97736280Y-64410600D01*
X97736280Y-64410600D02*
X97621995Y-64353457D01*
X97050566Y-64067742D02*
X97050566Y-64867742D01*
X97050566Y-64182028D02*
X96993423Y-64124885D01*
X96993423Y-64124885D02*
X96879138Y-64067742D01*
X96879138Y-64067742D02*
X96707709Y-64067742D01*
X96707709Y-64067742D02*
X96593423Y-64124885D01*
X96593423Y-64124885D02*
X96536281Y-64239171D01*
X96536281Y-64239171D02*
X96536281Y-64867742D01*
X95450567Y-64810600D02*
X95564852Y-64867742D01*
X95564852Y-64867742D02*
X95793424Y-64867742D01*
X95793424Y-64867742D02*
X95907709Y-64810600D01*
X95907709Y-64810600D02*
X95964852Y-64753457D01*
X95964852Y-64753457D02*
X96021995Y-64639171D01*
X96021995Y-64639171D02*
X96021995Y-64296314D01*
X96021995Y-64296314D02*
X95964852Y-64182028D01*
X95964852Y-64182028D02*
X95907709Y-64124885D01*
X95907709Y-64124885D02*
X95793424Y-64067742D01*
X95793424Y-64067742D02*
X95564852Y-64067742D01*
X95564852Y-64067742D02*
X95450567Y-64124885D01*
X94936281Y-64867742D02*
X94936281Y-64067742D01*
X94936281Y-64296314D02*
X94879138Y-64182028D01*
X94879138Y-64182028D02*
X94821996Y-64124885D01*
X94821996Y-64124885D02*
X94707710Y-64067742D01*
X94707710Y-64067742D02*
X94593424Y-64067742D01*
X93679139Y-64067742D02*
X93679139Y-65039171D01*
X93679139Y-65039171D02*
X93736281Y-65153457D01*
X93736281Y-65153457D02*
X93793424Y-65210600D01*
X93793424Y-65210600D02*
X93907710Y-65267742D01*
X93907710Y-65267742D02*
X94079139Y-65267742D01*
X94079139Y-65267742D02*
X94193424Y-65210600D01*
X93679139Y-64810600D02*
X93793424Y-64867742D01*
X93793424Y-64867742D02*
X94021996Y-64867742D01*
X94021996Y-64867742D02*
X94136281Y-64810600D01*
X94136281Y-64810600D02*
X94193424Y-64753457D01*
X94193424Y-64753457D02*
X94250567Y-64639171D01*
X94250567Y-64639171D02*
X94250567Y-64296314D01*
X94250567Y-64296314D02*
X94193424Y-64182028D01*
X94193424Y-64182028D02*
X94136281Y-64124885D01*
X94136281Y-64124885D02*
X94021996Y-64067742D01*
X94021996Y-64067742D02*
X93793424Y-64067742D01*
X93793424Y-64067742D02*
X93679139Y-64124885D01*
D12*
%TO.C,Q2*%
X94740000Y-42940000D02*
X94740000Y-44460000D01*
X94790000Y-42940000D02*
X94740000Y-42940000D01*
X96690000Y-42940000D02*
X95910000Y-42940000D01*
X97860000Y-42940000D02*
X97810000Y-42940000D01*
X94740000Y-44460000D02*
X95740000Y-44460000D01*
X96860000Y-44460000D02*
X97860000Y-44460000D01*
X97860000Y-44460000D02*
X97860000Y-42940000D01*
X96250000Y-42640000D02*
X95920000Y-42400000D01*
X96250000Y-42160000D01*
X96250000Y-42640000D01*
G36*
X96250000Y-42640000D02*
G01*
X95920000Y-42400000D01*
X96250000Y-42160000D01*
X96250000Y-42640000D01*
G37*
%TO.C,R11*%
X96514564Y-38465000D02*
X96060436Y-38465000D01*
X96514564Y-39935000D02*
X96060436Y-39935000D01*
%TO.C,R4*%
X89265000Y-34185436D02*
X89265000Y-34639564D01*
X90735000Y-34185436D02*
X90735000Y-34639564D01*
%TO.C,R10*%
X107735000Y-32327064D02*
X107735000Y-31872936D01*
X106265000Y-32327064D02*
X106265000Y-31872936D01*
%TO.C,R5*%
X94135000Y-34639564D02*
X94135000Y-34185436D01*
X92665000Y-34639564D02*
X92665000Y-34185436D01*
%TO.C,C9*%
X96065000Y-34188748D02*
X96065000Y-34711252D01*
X97535000Y-34188748D02*
X97535000Y-34711252D01*
%TO.C,R9*%
X91360436Y-48241250D02*
X91814564Y-48241250D01*
X91360436Y-46771250D02*
X91814564Y-46771250D01*
%TO.C,Q3*%
X93160000Y-44466250D02*
X93160000Y-42946250D01*
X93110000Y-44466250D02*
X93160000Y-44466250D01*
X91210000Y-44466250D02*
X91990000Y-44466250D01*
X90040000Y-44466250D02*
X90090000Y-44466250D01*
X93160000Y-42946250D02*
X92160000Y-42946250D01*
X91040000Y-42946250D02*
X90040000Y-42946250D01*
X90040000Y-42946250D02*
X90040000Y-44466250D01*
X91980000Y-45006250D02*
X91650000Y-45246250D01*
X91650000Y-44766250D01*
X91980000Y-45006250D01*
G36*
X91980000Y-45006250D02*
G01*
X91650000Y-45246250D01*
X91650000Y-44766250D01*
X91980000Y-45006250D01*
G37*
%TD*%
M02*
