M48
; DRILL file {KiCad 9.0.8-9.0.8~ubuntu24.04.1} date 2026-05-07T18:21:52+0200
; FORMAT={-:-/ absolute / metric / decimal}
; #@! TF.CreationDate,2026-05-07T18:21:52+02:00
; #@! TF.GenerationSoftware,Kicad,Pcbnew,9.0.8-9.0.8~ubuntu24.04.1
; #@! TF.FileFunction,Plated,1,2,PTH
FMAT,2
METRIC
; #@! TA.AperFunction,Plated,PTH,ViaDrill
T1C0.300
; #@! TA.AperFunction,Plated,PTH,ComponentDrill
T2C1.000
%
G90
G05
T1
X44.0Y-33.0
X44.0Y-37.5
X47.475Y-52.075
X51.15Y-45.425
X52.5Y-62.0
X56.375Y-31.2
X56.7Y-56.3
X58.075Y-46.6
X59.0Y-27.5
X61.1Y-55.2
X61.5Y-61.5
X63.6Y-49.175
X65.8Y-33.6
X65.9Y-26.9
X67.45Y-38.825
X68.45Y-42.325
X69.75Y-26.9
X70.5Y-56.0
X70.5Y-60.5
X71.345Y-36.945
X71.9Y-47.6
X72.35Y-37.95
X72.8Y-26.95
X73.5Y-37.8
X75.1Y-56.2
X76.45Y-34.4
X76.95Y-36.05
X77.25Y-41.625
X77.65Y-62.5
X77.9Y-38.0
X79.25Y-37.05
X79.4Y-56.9
X80.0Y-59.5
X80.3Y-31.6
X81.5Y-28.0
X81.85Y-34.6
X83.0Y-61.0
X84.0Y-56.5
X85.38Y-59.525
X85.38Y-60.5
X88.075Y-47.5
X88.8Y-42.0
X89.5Y-49.0
X89.5Y-51.5
X89.5Y-63.0
X93.2Y-37.6
X94.65Y-47.325
X96.95Y-62.275
X99.0Y-47.35
X105.025Y-44.35
X105.3Y-51.3
X105.3Y-55.2
X105.425Y-64.575
X106.0Y-29.3
X106.3Y-47.0
X106.675Y-40.0
X111.85Y-40.3
X112.925Y-52.95
T2
X85.797Y-30.06
X85.797Y-32.6
X85.797Y-35.14
X85.797Y-37.68
X85.797Y-40.22
X85.797Y-42.76
X85.797Y-45.3
X85.797Y-47.84
X101.136Y-30.032
X101.136Y-32.572
X101.136Y-35.112
X101.136Y-37.652
X101.136Y-40.192
X101.136Y-42.732
X101.136Y-45.272
X101.136Y-47.812
M30
