%TF.GenerationSoftware,KiCad,Pcbnew,9.0.8-9.0.8~ubuntu24.04.1*%
%TF.CreationDate,2026-05-07T18:21:45+02:00*%
%TF.ProjectId,caelum_v2,6361656c-756d-45f7-9632-2e6b69636164,rev?*%
%TF.SameCoordinates,Original*%
%TF.FileFunction,Copper,L2,Bot*%
%TF.FilePolarity,Positive*%
%FSLAX46Y46*%
G04 Gerber Fmt 4.6, Leading zero omitted, Abs format (unit mm)*
G04 Created by KiCad (PCBNEW 9.0.8-9.0.8~ubuntu24.04.1) date 2026-05-07 18:21:45*
%MOMM*%
%LPD*%
G01*
G04 APERTURE LIST*
G04 Aperture macros list*
%AMRoundRect*
0 Rectangle with rounded corners*
0 $1 Rounding radius*
0 $2 $3 $4 $5 $6 $7 $8 $9 X,Y pos of 4 corners*
0 Add a 4 corners polygon primitive as box body*
4,1,4,$2,$3,$4,$5,$6,$7,$8,$9,$2,$3,0*
0 Add four circle primitives for the rounded corners*
1,1,$1+$1,$2,$3*
1,1,$1+$1,$4,$5*
1,1,$1+$1,$6,$7*
1,1,$1+$1,$8,$9*
0 Add four rect primitives between the rounded corners*
20,1,$1+$1,$2,$3,$4,$5,0*
20,1,$1+$1,$4,$5,$6,$7,0*
20,1,$1+$1,$6,$7,$8,$9,0*
20,1,$1+$1,$8,$9,$2,$3,0*%
G04 Aperture macros list end*
%TA.AperFunction,SMDPad,CuDef*%
%ADD10RoundRect,0.150000X-0.150000X0.587500X-0.150000X-0.587500X0.150000X-0.587500X0.150000X0.587500X0*%
%TD*%
%TA.AperFunction,SMDPad,CuDef*%
%ADD11RoundRect,0.250000X0.262500X0.450000X-0.262500X0.450000X-0.262500X-0.450000X0.262500X-0.450000X0*%
%TD*%
%TA.AperFunction,SMDPad,CuDef*%
%ADD12RoundRect,0.250000X-0.450000X0.262500X-0.450000X-0.262500X0.450000X-0.262500X0.450000X0.262500X0*%
%TD*%
%TA.AperFunction,SMDPad,CuDef*%
%ADD13RoundRect,0.250000X0.450000X-0.262500X0.450000X0.262500X-0.450000X0.262500X-0.450000X-0.262500X0*%
%TD*%
%TA.AperFunction,SMDPad,CuDef*%
%ADD14RoundRect,0.250000X-0.475000X0.250000X-0.475000X-0.250000X0.475000X-0.250000X0.475000X0.250000X0*%
%TD*%
%TA.AperFunction,SMDPad,CuDef*%
%ADD15RoundRect,0.250000X-0.262500X-0.450000X0.262500X-0.450000X0.262500X0.450000X-0.262500X0.450000X0*%
%TD*%
%TA.AperFunction,SMDPad,CuDef*%
%ADD16RoundRect,0.150000X0.150000X-0.587500X0.150000X0.587500X-0.150000X0.587500X-0.150000X-0.587500X0*%
%TD*%
%TA.AperFunction,ComponentPad*%
%ADD17O,3.000000X1.500000*%
%TD*%
%TA.AperFunction,ComponentPad*%
%ADD18RoundRect,0.250000X1.250000X0.600000X-1.250000X0.600000X-1.250000X-0.600000X1.250000X-0.600000X0*%
%TD*%
%TA.AperFunction,ViaPad*%
%ADD19C,0.600000*%
%TD*%
%TA.AperFunction,ViaPad*%
%ADD20C,0.500000*%
%TD*%
%TA.AperFunction,Conductor*%
%ADD21C,0.200000*%
%TD*%
%TA.AperFunction,Conductor*%
%ADD22C,0.250000*%
%TD*%
%TA.AperFunction,Conductor*%
%ADD23C,0.350000*%
%TD*%
%TA.AperFunction,Conductor*%
%ADD24C,0.500000*%
%TD*%
G04 APERTURE END LIST*
D10*
%TO.P,Q2,1,G*%
%TO.N,Net-(Q2-G)*%
X95350000Y-42762500D03*
%TO.P,Q2,2,S*%
%TO.N,OUT-*%
X97250000Y-42762500D03*
%TO.P,Q2,3,D*%
%TO.N,Net-(Q2-D)*%
X96300000Y-44637500D03*
%TD*%
D11*
%TO.P,R11,1*%
%TO.N,GPIO3*%
X97200000Y-39200000D03*
%TO.P,R11,2*%
%TO.N,Net-(Q2-G)*%
X95375000Y-39200000D03*
%TD*%
D12*
%TO.P,R4,1*%
%TO.N,GPIO4*%
X90000000Y-33500000D03*
%TO.P,R4,2*%
%TO.N,Net-(Q3-D)*%
X90000000Y-35325000D03*
%TD*%
D13*
%TO.P,R10,1*%
%TO.N,GPIO3*%
X107000000Y-33012500D03*
%TO.P,R10,2*%
%TO.N,OUT-*%
X107000000Y-31187500D03*
%TD*%
%TO.P,R5,1*%
%TO.N,OUT-*%
X93400000Y-35325000D03*
%TO.P,R5,2*%
%TO.N,GPIO4*%
X93400000Y-33500000D03*
%TD*%
D14*
%TO.P,C9,1*%
%TO.N,GPIO4*%
X96800000Y-33500000D03*
%TO.P,C9,2*%
%TO.N,OUT-*%
X96800000Y-35400000D03*
%TD*%
D15*
%TO.P,R9,1*%
%TO.N,BATT+*%
X90675000Y-47506250D03*
%TO.P,R9,2*%
%TO.N,Net-(Q2-D)*%
X92500000Y-47506250D03*
%TD*%
D16*
%TO.P,Q3,1,G*%
%TO.N,Net-(Q2-D)*%
X92550000Y-44643750D03*
%TO.P,Q3,2,S*%
%TO.N,BATT+*%
X90650000Y-44643750D03*
%TO.P,Q3,3,D*%
%TO.N,Net-(Q3-D)*%
X91600000Y-42768750D03*
%TD*%
D17*
%TO.P,U3,2,IO10*%
%TO.N,SDA*%
X85097363Y-30059822D03*
%TO.P,U3,3,IO11*%
%TO.N,SCL*%
X85097363Y-32599822D03*
%TO.P,U3,4,IO12*%
%TO.N,GPIO12*%
X85097363Y-35139822D03*
%TO.P,U3,5,IO13*%
%TO.N,GPIO13*%
X85097363Y-37679822D03*
%TO.P,U3,6,IO14*%
%TO.N,GPIO14*%
X85097363Y-40219822D03*
%TO.P,U3,7,3V3*%
%TO.N,+3V3*%
X85097363Y-42759822D03*
%TO.P,U3,8,GND*%
%TO.N,OUT-*%
X85097363Y-45299822D03*
D18*
%TO.P,U3,9,5V*%
%TO.N,unconnected-(U3-5V-Pad9)*%
X85097363Y-47839822D03*
D17*
%TO.P,U3,12,IO5*%
%TO.N,unconnected-(U3-IO5-Pad12)*%
X101835605Y-30032499D03*
%TO.P,U3,13,IO4*%
%TO.N,GPIO4*%
X101835605Y-32572499D03*
%TO.P,U3,14,IO3*%
%TO.N,GPIO3*%
X101835605Y-35112499D03*
%TO.P,U3,15,IO2*%
%TO.N,SCL_2*%
X101835605Y-37652499D03*
%TO.P,U3,16,IO1*%
%TO.N,SDA_2*%
X101835605Y-40192499D03*
%TO.P,U3,17,IO0*%
%TO.N,unconnected-(U3-IO0-Pad17)*%
X101835605Y-42732499D03*
%TO.P,U3,18,IO23*%
%TO.N,unconnected-(U3-IO23-Pad18)*%
X101835605Y-45272499D03*
%TO.P,U3,19,IO24*%
%TO.N,GPIO24*%
X101835605Y-47812499D03*
%TD*%
D19*
%TO.N,OUT-*%
X76950000Y-36050000D03*
X73500000Y-37800000D03*
X76450000Y-34400000D03*
X77900000Y-38000000D03*
D20*
%TO.N,GPIO12*%
X79250000Y-37050000D03*
%TO.N,SDA*%
X72350000Y-37950000D03*
D19*
%TO.N,OUT-*%
X63600000Y-49175000D03*
X56700000Y-56300000D03*
X79400000Y-56900000D03*
X88075000Y-47500000D03*
X58075000Y-46600000D03*
X85380000Y-60500000D03*
X105300000Y-55200000D03*
X88800000Y-42000000D03*
X75100000Y-56200000D03*
X65800000Y-33600000D03*
X111850000Y-40300000D03*
X71900000Y-47600000D03*
X93200000Y-37600000D03*
X81850000Y-34600000D03*
X96950000Y-62275000D03*
X84000000Y-56500000D03*
X47475000Y-52075000D03*
X44000000Y-33000000D03*
X59000000Y-27500000D03*
X51150000Y-45425000D03*
X105300000Y-51300000D03*
X89500000Y-63000000D03*
X80300000Y-31600000D03*
X77250000Y-41625000D03*
X65900000Y-26900000D03*
D20*
X52500000Y-62000000D03*
D19*
X44000000Y-37500000D03*
X70500000Y-60500000D03*
D20*
X61500000Y-61500000D03*
D19*
X56375000Y-31200000D03*
X61100000Y-55200000D03*
X72800000Y-26950000D03*
X77650000Y-62500000D03*
X112925000Y-52950000D03*
X69750000Y-26900000D03*
X89500000Y-51500000D03*
X99000000Y-47350000D03*
X94650000Y-47325000D03*
X81500000Y-28000000D03*
X106000000Y-29300000D03*
X105425000Y-64575000D03*
X105025000Y-44350000D03*
X68450000Y-42325000D03*
X70500000Y-56000000D03*
X67450000Y-38825000D03*
X83000000Y-61000000D03*
D20*
%TO.N,BATT+*%
X89500000Y-49000000D03*
D19*
%TO.N,+3V3*%
X106675000Y-40000000D03*
X106300000Y-47000000D03*
%TO.N,SDA*%
X71344640Y-36944640D03*
D20*
%TO.N,Net-(Q1-D12-Pad1)*%
X80000000Y-59500000D03*
X85380000Y-59525000D03*
%TD*%
D21*
%TO.N,GPIO12*%
X79250000Y-37050000D02*
X79700000Y-36600000D01*
X79700000Y-36600000D02*
X80350000Y-36600000D01*
X85137185Y-35800000D02*
X85797363Y-35139822D01*
X80350000Y-36600000D02*
X81150000Y-35800000D01*
X81150000Y-35800000D02*
X85137185Y-35800000D01*
D22*
%TO.N,SDA*%
X72350000Y-37950000D02*
X71344640Y-36944640D01*
D23*
%TO.N,BATT+*%
X90675000Y-47506250D02*
X90675000Y-44668750D01*
X90675000Y-47825000D02*
X90675000Y-47506250D01*
X89500000Y-49000000D02*
X90675000Y-47825000D01*
D24*
%TO.N,+3V3*%
X107050000Y-40000000D02*
X106675000Y-40000000D01*
X106700000Y-46600000D02*
X106700000Y-40350000D01*
X106300000Y-47000000D02*
X106700000Y-46600000D01*
X106700000Y-40350000D02*
X107050000Y-40000000D01*
D23*
%TO.N,Net-(Q2-D)*%
X92500000Y-47506250D02*
X92500000Y-44693750D01*
X92550000Y-44643750D02*
X96293750Y-44643750D01*
X96293750Y-44643750D02*
X96300000Y-44637500D01*
X92575000Y-44962500D02*
X92550000Y-44937500D01*
%TO.N,Net-(Q1-D12-Pad1)*%
X80000000Y-59500000D02*
X85355000Y-59500000D01*
X85355000Y-59500000D02*
X85380000Y-59525000D01*
D21*
%TO.N,GPIO13*%
X85477185Y-38000000D02*
X85488592Y-37988592D01*
X85797363Y-37679822D02*
X85488593Y-37988592D01*
X85488593Y-37988592D02*
X85488592Y-37988592D01*
D23*
%TO.N,GPIO4*%
X93400000Y-33500000D02*
X96800000Y-33500000D01*
X96800000Y-33500000D02*
X99000000Y-33500000D01*
D21*
X101135605Y-32572499D02*
X100708104Y-33000000D01*
D23*
X99000000Y-33500000D02*
X99927501Y-32572499D01*
X99927501Y-32572499D02*
X101135605Y-32572499D01*
X90000000Y-33500000D02*
X93400000Y-33500000D01*
D21*
%TO.N,GPIO3*%
X104900001Y-35112499D02*
X107000000Y-33012500D01*
D23*
X100287501Y-35112499D02*
X101135605Y-35112499D01*
D21*
X101135605Y-35112499D02*
X104900001Y-35112499D01*
D23*
X97200000Y-38200000D02*
X100287501Y-35112499D01*
X97200000Y-39200000D02*
X97200000Y-38200000D01*
%TO.N,Net-(Q3-D)*%
X91600000Y-39500000D02*
X90000000Y-37900000D01*
X91600000Y-42768750D02*
X91600000Y-39500000D01*
X90000000Y-37900000D02*
X90000000Y-35325000D01*
%TO.N,Net-(Q2-G)*%
X95350000Y-39225000D02*
X95375000Y-39200000D01*
X95350000Y-42762500D02*
X95350000Y-39225000D01*
%TD*%
%TA.AperFunction,Conductor*%
%TO.N,OUT-*%
G36*
X85004418Y-26000816D02*
G01*
X85204561Y-26015130D01*
X85222063Y-26017647D01*
X85413795Y-26059355D01*
X85430760Y-26064336D01*
X85614611Y-26132909D01*
X85630694Y-26140253D01*
X85747495Y-26204032D01*
X85802908Y-26234290D01*
X85817791Y-26243855D01*
X85974864Y-26361438D01*
X85988235Y-26373024D01*
X86126975Y-26511764D01*
X86138561Y-26525135D01*
X86256144Y-26682208D01*
X86265709Y-26697091D01*
X86359743Y-26869300D01*
X86367093Y-26885394D01*
X86435661Y-27069234D01*
X86440645Y-27086209D01*
X86482351Y-27277931D01*
X86484869Y-27295442D01*
X86488410Y-27344949D01*
X86497346Y-27469890D01*
X86499184Y-27495580D01*
X86499500Y-27504427D01*
X86499500Y-28786650D01*
X86479815Y-28853689D01*
X86427011Y-28899444D01*
X86357853Y-28909388D01*
X86332063Y-28902313D01*
X86332021Y-28902444D01*
X86329219Y-28901533D01*
X86328054Y-28901214D01*
X86327392Y-28900940D01*
X86327391Y-28900939D01*
X86327388Y-28900938D01*
X86243297Y-28873615D01*
X86140189Y-28840112D01*
X85945785Y-28809322D01*
X85945780Y-28809322D01*
X84248946Y-28809322D01*
X84248941Y-28809322D01*
X84054536Y-28840112D01*
X83867333Y-28900939D01*
X83691957Y-28990298D01*
X83601104Y-29056307D01*
X83532717Y-29105994D01*
X83532715Y-29105996D01*
X83532714Y-29105996D01*
X83393537Y-29245173D01*
X83393537Y-29245174D01*
X83393535Y-29245176D01*
X83343848Y-29313563D01*
X83277839Y-29404416D01*
X83188480Y-29579792D01*
X83127653Y-29766995D01*
X83096863Y-29961399D01*
X83096863Y-30158244D01*
X83127653Y-30352648D01*
X83188480Y-30539851D01*
X83249913Y-30660419D01*
X83277839Y-30715227D01*
X83393535Y-30874468D01*
X83532717Y-31013650D01*
X83691958Y-31129346D01*
X83813713Y-31191383D01*
X83868576Y-31219337D01*
X83919372Y-31267311D01*
X83936167Y-31335132D01*
X83913630Y-31401267D01*
X83868576Y-31440307D01*
X83691957Y-31530298D01*
X83686196Y-31534484D01*
X83532717Y-31645994D01*
X83532715Y-31645996D01*
X83532714Y-31645996D01*
X83393537Y-31785173D01*
X83393537Y-31785174D01*
X83393535Y-31785176D01*
X83343848Y-31853563D01*
X83277839Y-31944416D01*
X83188480Y-32119792D01*
X83127653Y-32306995D01*
X83096863Y-32501399D01*
X83096863Y-32698244D01*
X83127653Y-32892648D01*
X83188480Y-33079851D01*
X83243322Y-33187483D01*
X83277839Y-33255227D01*
X83393535Y-33414468D01*
X83532717Y-33553650D01*
X83691958Y-33669346D01*
X83791718Y-33720176D01*
X83868576Y-33759337D01*
X83919372Y-33807311D01*
X83936167Y-33875132D01*
X83913630Y-33941267D01*
X83868576Y-33980307D01*
X83691957Y-34070298D01*
X83601104Y-34136307D01*
X83532717Y-34185994D01*
X83532715Y-34185996D01*
X83532714Y-34185996D01*
X83420858Y-34297853D01*
X83393535Y-34325176D01*
X83330090Y-34412500D01*
X83277839Y-34484416D01*
X83188480Y-34659792D01*
X83152208Y-34771425D01*
X83146101Y-34786692D01*
X82982026Y-35129086D01*
X82935303Y-35181036D01*
X82870202Y-35199500D01*
X81236669Y-35199500D01*
X81236653Y-35199499D01*
X81229057Y-35199499D01*
X81070943Y-35199499D01*
X80956397Y-35230192D01*
X80918214Y-35240423D01*
X80905170Y-35247955D01*
X80905167Y-35247956D01*
X80781290Y-35319475D01*
X80781282Y-35319481D01*
X80669480Y-35431284D01*
X80669478Y-35431286D01*
X80387765Y-35713000D01*
X80137584Y-35963181D01*
X80076261Y-35996666D01*
X80049903Y-35999500D01*
X79779057Y-35999500D01*
X79620943Y-35999500D01*
X79468215Y-36040423D01*
X79468214Y-36040423D01*
X79468212Y-36040424D01*
X79468209Y-36040425D01*
X79418096Y-36069359D01*
X79418095Y-36069360D01*
X79376028Y-36093647D01*
X79331285Y-36119479D01*
X79331282Y-36119481D01*
X79219478Y-36231286D01*
X79219477Y-36231287D01*
X79171698Y-36279065D01*
X79110375Y-36312549D01*
X79108210Y-36313000D01*
X79031092Y-36328340D01*
X79031084Y-36328342D01*
X78894511Y-36384912D01*
X78894498Y-36384919D01*
X78771584Y-36467048D01*
X78771580Y-36467051D01*
X78667051Y-36571580D01*
X78667048Y-36571584D01*
X78584919Y-36694498D01*
X78584912Y-36694511D01*
X78528343Y-36831082D01*
X78528340Y-36831092D01*
X78499500Y-36976079D01*
X78499500Y-37123918D01*
X78528340Y-37268907D01*
X78528343Y-37268917D01*
X78584912Y-37405488D01*
X78584919Y-37405501D01*
X78667048Y-37528415D01*
X78667051Y-37528419D01*
X78771580Y-37632948D01*
X78771584Y-37632951D01*
X78894498Y-37715080D01*
X78894511Y-37715087D01*
X79031082Y-37771656D01*
X79031087Y-37771658D01*
X79031091Y-37771658D01*
X79031092Y-37771659D01*
X79176079Y-37800500D01*
X79176082Y-37800500D01*
X79323920Y-37800500D01*
X79421462Y-37781096D01*
X79468913Y-37771658D01*
X79605495Y-37715084D01*
X79728416Y-37632951D01*
X79832951Y-37528416D01*
X79915084Y-37405495D01*
X79965028Y-37284919D01*
X79968289Y-37277047D01*
X79980832Y-37261481D01*
X79989137Y-37243297D01*
X80002307Y-37234832D01*
X80012130Y-37222644D01*
X80031097Y-37216331D01*
X80047915Y-37205523D01*
X80075475Y-37201560D01*
X80078424Y-37200579D01*
X80082850Y-37200500D01*
X80263331Y-37200500D01*
X80263347Y-37200501D01*
X80270943Y-37200501D01*
X80429054Y-37200501D01*
X80429057Y-37200501D01*
X80581785Y-37159577D01*
X80643548Y-37123918D01*
X80718716Y-37080520D01*
X80830520Y-36968716D01*
X80830520Y-36968714D01*
X80840724Y-36958511D01*
X80840727Y-36958506D01*
X81362416Y-36436819D01*
X81423739Y-36403334D01*
X81450097Y-36400500D01*
X83238690Y-36400500D01*
X83255850Y-36401692D01*
X83282728Y-36405449D01*
X83593475Y-36404222D01*
X83660591Y-36423642D01*
X83706554Y-36476264D01*
X83716771Y-36545383D01*
X83687997Y-36609053D01*
X83666850Y-36628538D01*
X83532723Y-36725989D01*
X83532714Y-36725996D01*
X83393537Y-36865173D01*
X83393537Y-36865174D01*
X83393535Y-36865176D01*
X83343848Y-36933563D01*
X83277839Y-37024416D01*
X83188480Y-37199792D01*
X83127653Y-37386995D01*
X83096863Y-37581399D01*
X83096863Y-37778244D01*
X83127653Y-37972648D01*
X83188480Y-38159851D01*
X83256291Y-38292937D01*
X83277839Y-38335227D01*
X83393535Y-38494468D01*
X83532717Y-38633650D01*
X83691958Y-38749346D01*
X83813713Y-38811383D01*
X83868576Y-38839337D01*
X83919372Y-38887311D01*
X83936167Y-38955132D01*
X83913630Y-39021267D01*
X83868576Y-39060307D01*
X83691957Y-39150298D01*
X83601104Y-39216307D01*
X83532717Y-39265994D01*
X83532715Y-39265996D01*
X83532714Y-39265996D01*
X83393537Y-39405173D01*
X83393537Y-39405174D01*
X83393535Y-39405176D01*
X83372980Y-39433468D01*
X83277839Y-39564416D01*
X83188480Y-39739792D01*
X83127653Y-39926995D01*
X83096863Y-40121399D01*
X83096863Y-40318244D01*
X83127653Y-40512648D01*
X83188480Y-40699851D01*
X83263917Y-40847904D01*
X83277839Y-40875227D01*
X83393535Y-41034468D01*
X83532717Y-41173650D01*
X83691958Y-41289346D01*
X83813713Y-41351383D01*
X83868576Y-41379337D01*
X83919372Y-41427311D01*
X83936167Y-41495132D01*
X83913630Y-41561267D01*
X83868576Y-41600307D01*
X83691957Y-41690298D01*
X83607369Y-41751756D01*
X83532717Y-41805994D01*
X83532715Y-41805996D01*
X83532714Y-41805996D01*
X83393537Y-41945173D01*
X83393537Y-41945174D01*
X83393535Y-41945176D01*
X83343848Y-42013563D01*
X83277839Y-42104416D01*
X83188480Y-42279792D01*
X83127653Y-42466995D01*
X83096863Y-42661399D01*
X83096863Y-42858244D01*
X83127653Y-43052648D01*
X83188480Y-43239851D01*
X83269826Y-43399500D01*
X83277839Y-43415227D01*
X83393535Y-43574468D01*
X83532717Y-43713650D01*
X83645863Y-43795856D01*
X83691959Y-43829347D01*
X83869126Y-43919617D01*
X83919923Y-43967591D01*
X83936718Y-44035412D01*
X83914181Y-44101547D01*
X83869127Y-44140587D01*
X83692219Y-44230726D01*
X83533041Y-44346377D01*
X83393918Y-44485500D01*
X83278267Y-44644678D01*
X83188944Y-44819984D01*
X83128144Y-45007105D01*
X83121379Y-45049822D01*
X85364351Y-45049822D01*
X85331438Y-45106829D01*
X85297363Y-45233996D01*
X85297363Y-45365648D01*
X85331438Y-45492815D01*
X85364351Y-45549822D01*
X83121379Y-45549822D01*
X83128144Y-45592538D01*
X83188944Y-45779659D01*
X83278267Y-45954965D01*
X83393918Y-46114143D01*
X83533041Y-46253266D01*
X83621218Y-46317331D01*
X83663883Y-46372662D01*
X83669862Y-46442275D01*
X83637256Y-46504070D01*
X83587338Y-46535354D01*
X83528034Y-46555006D01*
X83528026Y-46555009D01*
X83378705Y-46647111D01*
X83254652Y-46771164D01*
X83162550Y-46920485D01*
X83162548Y-46920490D01*
X83162327Y-46921158D01*
X83107364Y-47087025D01*
X83107364Y-47087026D01*
X83107363Y-47087026D01*
X83096863Y-47189805D01*
X83096863Y-48489823D01*
X83096864Y-48489840D01*
X83107363Y-48592618D01*
X83107364Y-48592621D01*
X83145183Y-48706749D01*
X83162549Y-48759156D01*
X83254651Y-48908478D01*
X83378707Y-49032534D01*
X83528029Y-49124636D01*
X83694566Y-49179821D01*
X83797354Y-49190322D01*
X86397371Y-49190321D01*
X86500160Y-49179821D01*
X86666697Y-49124636D01*
X86816019Y-49032534D01*
X86940075Y-48908478D01*
X87032177Y-48759156D01*
X87087362Y-48592619D01*
X87097863Y-48489831D01*
X87097862Y-47189814D01*
X87087362Y-47087025D01*
X87032177Y-46920488D01*
X86940075Y-46771166D01*
X86816019Y-46647110D01*
X86716460Y-46585702D01*
X86666699Y-46555009D01*
X86666698Y-46555008D01*
X86666697Y-46555008D01*
X86607387Y-46535354D01*
X86549943Y-46495581D01*
X86523121Y-46431065D01*
X86535437Y-46362290D01*
X86573508Y-46317331D01*
X86661679Y-46253270D01*
X86661685Y-46253265D01*
X86800807Y-46114143D01*
X86916458Y-45954965D01*
X87005781Y-45779659D01*
X87066581Y-45592538D01*
X87073347Y-45549822D01*
X86230375Y-45549822D01*
X86263288Y-45492815D01*
X86297363Y-45365648D01*
X86297363Y-45233996D01*
X86263288Y-45106829D01*
X86230375Y-45049822D01*
X87073347Y-45049822D01*
X87066581Y-45007105D01*
X87005781Y-44819984D01*
X86916458Y-44644678D01*
X86800807Y-44485500D01*
X86661684Y-44346377D01*
X86502506Y-44230726D01*
X86325598Y-44140587D01*
X86274802Y-44092612D01*
X86258007Y-44024791D01*
X86280544Y-43958657D01*
X86325599Y-43919617D01*
X86327385Y-43918706D01*
X86327388Y-43918706D01*
X86502768Y-43829346D01*
X86662009Y-43713650D01*
X86801191Y-43574468D01*
X86916887Y-43415227D01*
X87006247Y-43239847D01*
X87067072Y-43052648D01*
X87097863Y-42858244D01*
X87097863Y-42661399D01*
X87067072Y-42466995D01*
X87006245Y-42279792D01*
X86922566Y-42115563D01*
X86916887Y-42104417D01*
X86801191Y-41945176D01*
X86662009Y-41805994D01*
X86582388Y-41748146D01*
X86502766Y-41690296D01*
X86326150Y-41600307D01*
X86275353Y-41552333D01*
X86258558Y-41484512D01*
X86281095Y-41418377D01*
X86326150Y-41379337D01*
X86502766Y-41289347D01*
X86502765Y-41289347D01*
X86502768Y-41289346D01*
X86662009Y-41173650D01*
X86801191Y-41034468D01*
X86916887Y-40875227D01*
X87006247Y-40699847D01*
X87067072Y-40512648D01*
X87097863Y-40318244D01*
X87097863Y-40121399D01*
X87067072Y-39926995D01*
X87035934Y-39831163D01*
X87006247Y-39739797D01*
X87006245Y-39739794D01*
X87006245Y-39739792D01*
X86945626Y-39620821D01*
X86916887Y-39564417D01*
X86801191Y-39405176D01*
X86662009Y-39265994D01*
X86570488Y-39199500D01*
X86502766Y-39150296D01*
X86326150Y-39060307D01*
X86275353Y-39012333D01*
X86258558Y-38944512D01*
X86281095Y-38878377D01*
X86326150Y-38839337D01*
X86502766Y-38749347D01*
X86502765Y-38749347D01*
X86502768Y-38749346D01*
X86662009Y-38633650D01*
X86801191Y-38494468D01*
X86916887Y-38335227D01*
X87006247Y-38159847D01*
X87067072Y-37972648D01*
X87068041Y-37966531D01*
X87097863Y-37778244D01*
X87097863Y-37581399D01*
X87067072Y-37386995D01*
X87031347Y-37277047D01*
X87006247Y-37199797D01*
X87006245Y-37199794D01*
X87006245Y-37199792D01*
X86916886Y-37024416D01*
X86801191Y-36865176D01*
X86662009Y-36725994D01*
X86582388Y-36668146D01*
X86502766Y-36610296D01*
X86326150Y-36520307D01*
X86275353Y-36472333D01*
X86258558Y-36404512D01*
X86281095Y-36338377D01*
X86326150Y-36299337D01*
X86502766Y-36209347D01*
X86502765Y-36209347D01*
X86502768Y-36209346D01*
X86662009Y-36093650D01*
X86801191Y-35954468D01*
X86916887Y-35795227D01*
X87006247Y-35619847D01*
X87067072Y-35432648D01*
X87084997Y-35319475D01*
X87097863Y-35238244D01*
X87097863Y-35041399D01*
X87067072Y-34846995D01*
X87006245Y-34659792D01*
X86939982Y-34529744D01*
X86916887Y-34484417D01*
X86801191Y-34325176D01*
X86662009Y-34185994D01*
X86541750Y-34098620D01*
X86502766Y-34070296D01*
X86326150Y-33980307D01*
X86275353Y-33932333D01*
X86258558Y-33864512D01*
X86281095Y-33798377D01*
X86326150Y-33759337D01*
X86502766Y-33669347D01*
X86502765Y-33669347D01*
X86502768Y-33669346D01*
X86662009Y-33553650D01*
X86801191Y-33414468D01*
X86916887Y-33255227D01*
X87006247Y-33079847D01*
X87067072Y-32892648D01*
X87097863Y-32698244D01*
X87097863Y-32501399D01*
X87067072Y-32306995D01*
X87028189Y-32187327D01*
X87006247Y-32119797D01*
X87006245Y-32119794D01*
X87006245Y-32119792D01*
X86951304Y-32011964D01*
X86916887Y-31944417D01*
X86801191Y-31785176D01*
X86662009Y-31645994D01*
X86508527Y-31534482D01*
X86502766Y-31530296D01*
X86326150Y-31440307D01*
X86275353Y-31392333D01*
X86258558Y-31324512D01*
X86281095Y-31258377D01*
X86326150Y-31219337D01*
X86502766Y-31129347D01*
X86502765Y-31129347D01*
X86502768Y-31129346D01*
X86662009Y-31013650D01*
X86801191Y-30874468D01*
X86916887Y-30715227D01*
X86929945Y-30689598D01*
X86977917Y-30638803D01*
X87045737Y-30622006D01*
X87111873Y-30644541D01*
X87133245Y-30663665D01*
X87228646Y-30771351D01*
X87228648Y-30771353D01*
X87416190Y-30937500D01*
X87455076Y-30971950D01*
X87704032Y-31143793D01*
X87971887Y-31284373D01*
X88143143Y-31349322D01*
X88254728Y-31391641D01*
X88254730Y-31391641D01*
X88254734Y-31391643D01*
X88548449Y-31464037D01*
X88799661Y-31494539D01*
X88848746Y-31500500D01*
X88848748Y-31500500D01*
X98151254Y-31500500D01*
X98196630Y-31494990D01*
X98451551Y-31464037D01*
X98745266Y-31391643D01*
X99028113Y-31284373D01*
X99295968Y-31143793D01*
X99544924Y-30971950D01*
X99771352Y-30771352D01*
X99836738Y-30697545D01*
X99895927Y-30660419D01*
X99965792Y-30661185D01*
X100024152Y-30699603D01*
X100029872Y-30706886D01*
X100131777Y-30847145D01*
X100270959Y-30986327D01*
X100430200Y-31102023D01*
X100483823Y-31129345D01*
X100606818Y-31192014D01*
X100614984Y-31199726D01*
X100625481Y-31203720D01*
X100639927Y-31223284D01*
X100657614Y-31239988D01*
X100660314Y-31250892D01*
X100666985Y-31259926D01*
X100668561Y-31284195D01*
X100674409Y-31307809D01*
X100670785Y-31318440D01*
X100671514Y-31329648D01*
X100659718Y-31350917D01*
X100651872Y-31373944D01*
X100642194Y-31382517D01*
X100637629Y-31390751D01*
X100612148Y-31409137D01*
X100609237Y-31411717D01*
X100605899Y-31413511D01*
X100605580Y-31413615D01*
X100430200Y-31502975D01*
X100403788Y-31522163D01*
X100396397Y-31526137D01*
X100395186Y-31526392D01*
X100391107Y-31528820D01*
X100379257Y-31534476D01*
X100379244Y-31534484D01*
X99845390Y-31890517D01*
X99800782Y-31908971D01*
X99730470Y-31922957D01*
X99730462Y-31922959D01*
X99607539Y-31973875D01*
X99607521Y-31973885D01*
X99496899Y-32047800D01*
X99496891Y-32047806D01*
X98756518Y-32788181D01*
X98695195Y-32821666D01*
X98668837Y-32824500D01*
X97961868Y-32824500D01*
X97894829Y-32804815D01*
X97873653Y-32785616D01*
X97872819Y-32786451D01*
X97743657Y-32657289D01*
X97743656Y-32657288D01*
X97594334Y-32565186D01*
X97427797Y-32510001D01*
X97427795Y-32510000D01*
X97325010Y-32499500D01*
X96274998Y-32499500D01*
X96274980Y-32499501D01*
X96172203Y-32510000D01*
X96172200Y-32510001D01*
X96005668Y-32565185D01*
X96005663Y-32565187D01*
X95856342Y-32657289D01*
X95727181Y-32786451D01*
X95725294Y-32784564D01*
X95678375Y-32817788D01*
X95638132Y-32824500D01*
X94546248Y-32824500D01*
X94479209Y-32804815D01*
X94448468Y-32773502D01*
X94447193Y-32774511D01*
X94442711Y-32768843D01*
X94318657Y-32644789D01*
X94318656Y-32644788D01*
X94225888Y-32587569D01*
X94169336Y-32552687D01*
X94169331Y-32552685D01*
X94167862Y-32552198D01*
X94002797Y-32497501D01*
X94002795Y-32497500D01*
X93900010Y-32487000D01*
X92899998Y-32487000D01*
X92899980Y-32487001D01*
X92797203Y-32497500D01*
X92797200Y-32497501D01*
X92630668Y-32552685D01*
X92630663Y-32552687D01*
X92481342Y-32644789D01*
X92357288Y-32768843D01*
X92352807Y-32774511D01*
X92350984Y-32773069D01*
X92307335Y-32812325D01*
X92253752Y-32824500D01*
X91146248Y-32824500D01*
X91079209Y-32804815D01*
X91048468Y-32773502D01*
X91047193Y-32774511D01*
X91042711Y-32768843D01*
X90918657Y-32644789D01*
X90918656Y-32644788D01*
X90825888Y-32587569D01*
X90769336Y-32552687D01*
X90769331Y-32552685D01*
X90767862Y-32552198D01*
X90602797Y-32497501D01*
X90602795Y-32497500D01*
X90500010Y-32487000D01*
X89499998Y-32487000D01*
X89499980Y-32487001D01*
X89397203Y-32497500D01*
X89397200Y-32497501D01*
X89230668Y-32552685D01*
X89230663Y-32552687D01*
X89081342Y-32644789D01*
X88957289Y-32768842D01*
X88865187Y-32918163D01*
X88865186Y-32918166D01*
X88810001Y-33084703D01*
X88810001Y-33084704D01*
X88810000Y-33084704D01*
X88799500Y-33187483D01*
X88799500Y-33812501D01*
X88799501Y-33812519D01*
X88810000Y-33915296D01*
X88810001Y-33915299D01*
X88865185Y-34081831D01*
X88865187Y-34081836D01*
X88875540Y-34098621D01*
X88954414Y-34226497D01*
X88957289Y-34231157D01*
X89050951Y-34324819D01*
X89084436Y-34386142D01*
X89079452Y-34455834D01*
X89050951Y-34500181D01*
X88957289Y-34593842D01*
X88865187Y-34743163D01*
X88865185Y-34743168D01*
X88865115Y-34743380D01*
X88810001Y-34909703D01*
X88810001Y-34909704D01*
X88810000Y-34909704D01*
X88799500Y-35012483D01*
X88799500Y-35637501D01*
X88799501Y-35637519D01*
X88810000Y-35740296D01*
X88810001Y-35740299D01*
X88828203Y-35795227D01*
X88865186Y-35906834D01*
X88957288Y-36056156D01*
X89081344Y-36180212D01*
X89230666Y-36272314D01*
X89239498Y-36275240D01*
X89296944Y-36315008D01*
X89323771Y-36379522D01*
X89324500Y-36392948D01*
X89324500Y-37966535D01*
X89350457Y-38097028D01*
X89350459Y-38097036D01*
X89401378Y-38219965D01*
X89401383Y-38219975D01*
X89475304Y-38330605D01*
X89475307Y-38330609D01*
X90888181Y-39743482D01*
X90921666Y-39804805D01*
X90924500Y-39831163D01*
X90924500Y-41758006D01*
X90907233Y-41821126D01*
X90848254Y-41920855D01*
X90848254Y-41920856D01*
X90802402Y-42078676D01*
X90802401Y-42078682D01*
X90799500Y-42115548D01*
X90799500Y-43281750D01*
X90779815Y-43348789D01*
X90727011Y-43394544D01*
X90675500Y-43405750D01*
X90434298Y-43405750D01*
X90397432Y-43408651D01*
X90397426Y-43408652D01*
X90239606Y-43454504D01*
X90239603Y-43454505D01*
X90098137Y-43538167D01*
X90098129Y-43538173D01*
X89981923Y-43654379D01*
X89981917Y-43654387D01*
X89898255Y-43795853D01*
X89898254Y-43795856D01*
X89852402Y-43953676D01*
X89852401Y-43953682D01*
X89849500Y-43990548D01*
X89849500Y-45296951D01*
X89852401Y-45333817D01*
X89852402Y-45333823D01*
X89898254Y-45491643D01*
X89898255Y-45491645D01*
X89898256Y-45491648D01*
X89981919Y-45633115D01*
X89982232Y-45633644D01*
X89999500Y-45696765D01*
X89999500Y-46360002D01*
X89979815Y-46427041D01*
X89948502Y-46457781D01*
X89949511Y-46459057D01*
X89943843Y-46463538D01*
X89819789Y-46587592D01*
X89727687Y-46736913D01*
X89727685Y-46736918D01*
X89700517Y-46818907D01*
X89672501Y-46903453D01*
X89672501Y-46903454D01*
X89672500Y-46903454D01*
X89662000Y-47006233D01*
X89662000Y-47831336D01*
X89642315Y-47898375D01*
X89625681Y-47919017D01*
X89273382Y-48271315D01*
X89233155Y-48298195D01*
X89144505Y-48334916D01*
X89144498Y-48334919D01*
X89021584Y-48417048D01*
X89021580Y-48417051D01*
X88917051Y-48521580D01*
X88917048Y-48521584D01*
X88834919Y-48644498D01*
X88834912Y-48644511D01*
X88778343Y-48781082D01*
X88778340Y-48781092D01*
X88749500Y-48926079D01*
X88749500Y-48926082D01*
X88749500Y-49073918D01*
X88749500Y-49073920D01*
X88749499Y-49073920D01*
X88778340Y-49218907D01*
X88778343Y-49218917D01*
X88834912Y-49355488D01*
X88834919Y-49355501D01*
X88917048Y-49478415D01*
X88917051Y-49478419D01*
X89021580Y-49582948D01*
X89021584Y-49582951D01*
X89144498Y-49665080D01*
X89144511Y-49665087D01*
X89281082Y-49721656D01*
X89281087Y-49721658D01*
X89281091Y-49721658D01*
X89281092Y-49721659D01*
X89426079Y-49750500D01*
X89426082Y-49750500D01*
X89573920Y-49750500D01*
X89671462Y-49731096D01*
X89718913Y-49721658D01*
X89855495Y-49665084D01*
X89978416Y-49582951D01*
X90082951Y-49478416D01*
X90165084Y-49355495D01*
X90201804Y-49266841D01*
X90228680Y-49226619D01*
X90712232Y-48743068D01*
X90773555Y-48709583D01*
X90799913Y-48706749D01*
X90987502Y-48706749D01*
X90987508Y-48706749D01*
X91090297Y-48696249D01*
X91256834Y-48641064D01*
X91406156Y-48548962D01*
X91499819Y-48455299D01*
X91561142Y-48421814D01*
X91630834Y-48426798D01*
X91675181Y-48455299D01*
X91768844Y-48548962D01*
X91918166Y-48641064D01*
X92084703Y-48696249D01*
X92187491Y-48706750D01*
X92812508Y-48706749D01*
X92812516Y-48706748D01*
X92812519Y-48706748D01*
X92868802Y-48700998D01*
X92915297Y-48696249D01*
X93081834Y-48641064D01*
X93231156Y-48548962D01*
X93355212Y-48424906D01*
X93447314Y-48275584D01*
X93502499Y-48109047D01*
X93513000Y-48006259D01*
X93512999Y-47006242D01*
X93507814Y-46955488D01*
X93502499Y-46903453D01*
X93502498Y-46903450D01*
X93458663Y-46771166D01*
X93447314Y-46736916D01*
X93355212Y-46587594D01*
X93231156Y-46463538D01*
X93225489Y-46459057D01*
X93226930Y-46457234D01*
X93187675Y-46413585D01*
X93175500Y-46360002D01*
X93175500Y-45727058D01*
X93195185Y-45660019D01*
X93211817Y-45639378D01*
X93218081Y-45633115D01*
X93301744Y-45491648D01*
X93301745Y-45491645D01*
X93325857Y-45408654D01*
X93363464Y-45349769D01*
X93426936Y-45320563D01*
X93444933Y-45319250D01*
X95406883Y-45319250D01*
X95473922Y-45338935D01*
X95519677Y-45391739D01*
X95525959Y-45408654D01*
X95548254Y-45485395D01*
X95548255Y-45485396D01*
X95548256Y-45485398D01*
X95560927Y-45506824D01*
X95631917Y-45626862D01*
X95631923Y-45626870D01*
X95748129Y-45743076D01*
X95748133Y-45743079D01*
X95748135Y-45743081D01*
X95889602Y-45826744D01*
X95931224Y-45838836D01*
X96047426Y-45872597D01*
X96047429Y-45872597D01*
X96047431Y-45872598D01*
X96084306Y-45875500D01*
X96084314Y-45875500D01*
X96515686Y-45875500D01*
X96515694Y-45875500D01*
X96552569Y-45872598D01*
X96552571Y-45872597D01*
X96552573Y-45872597D01*
X96594191Y-45860505D01*
X96710398Y-45826744D01*
X96851865Y-45743081D01*
X96968081Y-45626865D01*
X97051744Y-45485398D01*
X97097598Y-45327569D01*
X97100500Y-45290694D01*
X97100500Y-43997295D01*
X97500000Y-43997295D01*
X97500001Y-43997295D01*
X97502486Y-43997100D01*
X97660198Y-43951281D01*
X97801552Y-43867685D01*
X97801561Y-43867678D01*
X97917678Y-43751561D01*
X97917685Y-43751552D01*
X98001282Y-43610196D01*
X98001283Y-43610193D01*
X98047099Y-43452495D01*
X98047100Y-43452489D01*
X98049999Y-43415649D01*
X98050000Y-43415634D01*
X98050000Y-43012500D01*
X97500000Y-43012500D01*
X97500000Y-43997295D01*
X97100500Y-43997295D01*
X97100500Y-43984306D01*
X97097598Y-43947431D01*
X97089517Y-43919617D01*
X97051745Y-43789606D01*
X97051745Y-43789605D01*
X97051744Y-43789604D01*
X97051744Y-43789602D01*
X97017267Y-43731304D01*
X97000000Y-43668184D01*
X97000000Y-43012500D01*
X96450000Y-43012500D01*
X96450000Y-43275500D01*
X96447449Y-43284185D01*
X96448738Y-43293147D01*
X96437759Y-43317187D01*
X96430315Y-43342539D01*
X96423474Y-43348466D01*
X96419713Y-43356703D01*
X96397478Y-43370992D01*
X96377511Y-43388294D01*
X96366996Y-43390581D01*
X96360935Y-43394477D01*
X96326000Y-43399500D01*
X96274500Y-43399500D01*
X96207461Y-43379815D01*
X96161706Y-43327011D01*
X96150500Y-43275500D01*
X96150500Y-42109350D01*
X96450000Y-42109350D01*
X96450000Y-42512500D01*
X97000000Y-42512500D01*
X97500000Y-42512500D01*
X98050000Y-42512500D01*
X98050000Y-42109365D01*
X98049999Y-42109350D01*
X98047100Y-42072510D01*
X98047099Y-42072504D01*
X98001283Y-41914806D01*
X98001282Y-41914803D01*
X97917685Y-41773447D01*
X97917678Y-41773438D01*
X97801561Y-41657321D01*
X97801552Y-41657314D01*
X97660196Y-41573717D01*
X97660193Y-41573716D01*
X97502494Y-41527900D01*
X97502497Y-41527900D01*
X97500000Y-41527703D01*
X97500000Y-42512500D01*
X97000000Y-42512500D01*
X97000000Y-41527703D01*
X96997503Y-41527900D01*
X96839806Y-41573716D01*
X96839803Y-41573717D01*
X96698447Y-41657314D01*
X96698438Y-41657321D01*
X96582321Y-41773438D01*
X96582314Y-41773447D01*
X96498717Y-41914803D01*
X96498716Y-41914806D01*
X96452900Y-42072504D01*
X96452899Y-42072510D01*
X96450000Y-42109350D01*
X96150500Y-42109350D01*
X96150500Y-42109313D01*
X96150499Y-42109298D01*
X96147598Y-42072432D01*
X96147597Y-42072426D01*
X96103560Y-41920852D01*
X96101744Y-41914602D01*
X96042767Y-41814876D01*
X96025500Y-41751756D01*
X96025500Y-40361667D01*
X96045185Y-40294628D01*
X96066278Y-40269743D01*
X96074715Y-40262104D01*
X96106156Y-40242712D01*
X96201996Y-40146871D01*
X96204278Y-40144806D01*
X96233075Y-40130889D01*
X96261142Y-40115564D01*
X96264318Y-40115791D01*
X96267187Y-40114405D01*
X96298930Y-40118266D01*
X96330834Y-40120548D01*
X96333903Y-40122520D01*
X96336545Y-40122842D01*
X96343928Y-40128963D01*
X96375181Y-40149049D01*
X96468844Y-40242712D01*
X96618166Y-40334814D01*
X96784703Y-40389999D01*
X96887491Y-40400500D01*
X97512508Y-40400499D01*
X97512516Y-40400498D01*
X97512519Y-40400498D01*
X97568802Y-40394748D01*
X97615297Y-40389999D01*
X97781834Y-40334814D01*
X97931156Y-40242712D01*
X98055212Y-40118656D01*
X98147314Y-39969334D01*
X98202499Y-39802797D01*
X98213000Y-39700009D01*
X98212999Y-38699992D01*
X98210104Y-38671656D01*
X98202499Y-38597203D01*
X98202498Y-38597200D01*
X98181207Y-38532948D01*
X98147314Y-38430666D01*
X98147310Y-38430660D01*
X98147309Y-38430657D01*
X98113834Y-38376386D01*
X98095393Y-38308994D01*
X98116315Y-38242330D01*
X98131686Y-38223613D01*
X100058851Y-36296448D01*
X100120172Y-36262965D01*
X100161784Y-36261073D01*
X100484146Y-36301034D01*
X100548253Y-36328816D01*
X100587165Y-36386848D01*
X100588525Y-36456704D01*
X100551901Y-36516207D01*
X100525186Y-36534576D01*
X100430202Y-36582973D01*
X100392596Y-36610296D01*
X100270959Y-36698671D01*
X100270957Y-36698673D01*
X100270956Y-36698673D01*
X100131779Y-36837850D01*
X100131779Y-36837851D01*
X100131777Y-36837853D01*
X100111474Y-36865798D01*
X100016081Y-36997093D01*
X99926722Y-37172469D01*
X99865895Y-37359672D01*
X99835105Y-37554076D01*
X99835105Y-37750921D01*
X99865895Y-37945325D01*
X99926722Y-38132528D01*
X100002547Y-38281342D01*
X100016081Y-38307904D01*
X100131777Y-38467145D01*
X100270959Y-38606327D01*
X100430200Y-38722023D01*
X100483823Y-38749345D01*
X100606818Y-38812014D01*
X100657614Y-38859988D01*
X100674409Y-38927809D01*
X100651872Y-38993944D01*
X100606818Y-39032984D01*
X100430199Y-39122975D01*
X100351668Y-39180032D01*
X100270959Y-39238671D01*
X100270957Y-39238673D01*
X100270956Y-39238673D01*
X100131779Y-39377850D01*
X100131779Y-39377851D01*
X100131777Y-39377853D01*
X100111928Y-39405173D01*
X100016081Y-39537093D01*
X99926722Y-39712469D01*
X99865895Y-39899672D01*
X99835105Y-40094076D01*
X99835105Y-40290921D01*
X99865895Y-40485325D01*
X99926722Y-40672528D01*
X100016081Y-40847904D01*
X100131777Y-41007145D01*
X100270959Y-41146327D01*
X100430200Y-41262023D01*
X100483823Y-41289345D01*
X100606818Y-41352014D01*
X100657614Y-41399988D01*
X100674409Y-41467809D01*
X100651872Y-41533944D01*
X100606818Y-41572984D01*
X100430199Y-41662975D01*
X100392593Y-41690298D01*
X100270959Y-41778671D01*
X100270957Y-41778673D01*
X100270956Y-41778673D01*
X100131779Y-41917850D01*
X100131779Y-41917851D01*
X100131777Y-41917853D01*
X100111928Y-41945173D01*
X100016081Y-42077093D01*
X99926722Y-42252469D01*
X99865895Y-42439672D01*
X99835105Y-42634076D01*
X99835105Y-42830921D01*
X99865895Y-43025325D01*
X99926722Y-43212528D01*
X99995986Y-43348466D01*
X100016081Y-43387904D01*
X100131777Y-43547145D01*
X100270959Y-43686327D01*
X100430200Y-43802023D01*
X100483825Y-43829346D01*
X100606818Y-43892014D01*
X100657614Y-43939988D01*
X100674409Y-44007809D01*
X100651872Y-44073944D01*
X100606818Y-44112984D01*
X100430199Y-44202975D01*
X100392004Y-44230726D01*
X100270959Y-44318671D01*
X100270957Y-44318673D01*
X100270956Y-44318673D01*
X100131779Y-44457850D01*
X100131779Y-44457851D01*
X100131777Y-44457853D01*
X100111690Y-44485500D01*
X100016081Y-44617093D01*
X99926722Y-44792469D01*
X99865895Y-44979672D01*
X99835105Y-45174076D01*
X99835105Y-45370921D01*
X99865895Y-45565325D01*
X99926722Y-45752528D01*
X99964538Y-45826745D01*
X100016081Y-45927904D01*
X100131777Y-46087145D01*
X100270959Y-46226327D01*
X100430200Y-46342023D01*
X100553597Y-46404896D01*
X100606818Y-46432014D01*
X100657614Y-46479988D01*
X100674409Y-46547809D01*
X100651872Y-46613944D01*
X100606818Y-46652984D01*
X100430199Y-46742975D01*
X100339346Y-46808984D01*
X100270959Y-46858671D01*
X100270957Y-46858673D01*
X100270956Y-46858673D01*
X100131779Y-46997850D01*
X100131779Y-46997851D01*
X100131777Y-46997853D01*
X100125691Y-47006230D01*
X100016081Y-47157093D01*
X99926722Y-47332469D01*
X99865895Y-47519672D01*
X99835105Y-47714076D01*
X99835105Y-47910921D01*
X99865895Y-48105325D01*
X99926722Y-48292528D01*
X100009658Y-48455299D01*
X100016081Y-48467904D01*
X100131777Y-48627145D01*
X100270959Y-48766327D01*
X100430200Y-48882023D01*
X100513060Y-48924242D01*
X100605575Y-48971381D01*
X100605577Y-48971381D01*
X100605580Y-48971383D01*
X100705922Y-49003986D01*
X100792778Y-49032208D01*
X100987183Y-49062999D01*
X100987188Y-49062999D01*
X102684027Y-49062999D01*
X102878431Y-49032208D01*
X103065630Y-48971383D01*
X103241010Y-48882023D01*
X103400251Y-48766327D01*
X103539433Y-48627145D01*
X103655129Y-48467904D01*
X103741208Y-48298962D01*
X103744487Y-48292528D01*
X103744487Y-48292527D01*
X103744489Y-48292524D01*
X103805314Y-48105325D01*
X103836105Y-47910921D01*
X103836105Y-47714076D01*
X103805314Y-47519672D01*
X103744487Y-47332469D01*
X103694054Y-47233489D01*
X103655129Y-47157094D01*
X103539433Y-46997853D01*
X103462733Y-46921153D01*
X105499500Y-46921153D01*
X105499500Y-47078846D01*
X105530261Y-47233489D01*
X105530264Y-47233501D01*
X105590602Y-47379172D01*
X105590609Y-47379185D01*
X105678210Y-47510288D01*
X105678213Y-47510292D01*
X105789707Y-47621786D01*
X105789711Y-47621789D01*
X105920814Y-47709390D01*
X105920827Y-47709397D01*
X106066498Y-47769735D01*
X106066503Y-47769737D01*
X106221153Y-47800499D01*
X106221156Y-47800500D01*
X106221158Y-47800500D01*
X106378844Y-47800500D01*
X106378845Y-47800499D01*
X106533497Y-47769737D01*
X106679179Y-47709394D01*
X106810289Y-47621789D01*
X106921789Y-47510289D01*
X107009394Y-47379179D01*
X107019192Y-47355521D01*
X107046067Y-47315298D01*
X107282951Y-47078416D01*
X107365084Y-46955495D01*
X107421658Y-46818913D01*
X107450500Y-46673918D01*
X107450500Y-46526083D01*
X107450500Y-40712230D01*
X107470185Y-40645191D01*
X107486814Y-40624553D01*
X107632952Y-40478416D01*
X107699259Y-40379179D01*
X107715084Y-40355495D01*
X107741782Y-40291040D01*
X107741832Y-40290921D01*
X107753968Y-40261620D01*
X107771659Y-40218912D01*
X107796514Y-40093958D01*
X107800500Y-40073918D01*
X107800500Y-39926082D01*
X107795247Y-39899673D01*
X107771659Y-39781087D01*
X107738075Y-39700009D01*
X107715085Y-39644506D01*
X107687581Y-39603343D01*
X107632952Y-39521584D01*
X107632950Y-39521582D01*
X107632948Y-39521579D01*
X107528420Y-39417051D01*
X107510643Y-39405173D01*
X107487817Y-39389921D01*
X107405493Y-39334914D01*
X107268913Y-39278341D01*
X107268905Y-39278339D01*
X107123922Y-39249500D01*
X107123918Y-39249500D01*
X106979604Y-39249500D01*
X106932155Y-39240062D01*
X106908497Y-39230263D01*
X106908493Y-39230262D01*
X106908488Y-39230260D01*
X106753845Y-39199500D01*
X106753842Y-39199500D01*
X106596158Y-39199500D01*
X106596155Y-39199500D01*
X106441510Y-39230261D01*
X106441498Y-39230264D01*
X106295827Y-39290602D01*
X106295814Y-39290609D01*
X106164711Y-39378210D01*
X106164707Y-39378213D01*
X106053213Y-39489707D01*
X106053210Y-39489711D01*
X105965609Y-39620814D01*
X105965602Y-39620827D01*
X105905264Y-39766498D01*
X105905261Y-39766510D01*
X105874500Y-39921153D01*
X105874500Y-40078846D01*
X105905261Y-40233489D01*
X105905264Y-40233501D01*
X105940061Y-40317508D01*
X105949500Y-40364960D01*
X105949500Y-46205164D01*
X105929815Y-46272203D01*
X105894391Y-46308266D01*
X105789710Y-46378210D01*
X105678213Y-46489707D01*
X105678210Y-46489711D01*
X105590609Y-46620814D01*
X105590602Y-46620827D01*
X105530264Y-46766498D01*
X105530261Y-46766510D01*
X105499500Y-46921153D01*
X103462733Y-46921153D01*
X103400251Y-46858671D01*
X103320630Y-46800823D01*
X103241008Y-46742973D01*
X103064392Y-46652984D01*
X103013595Y-46605010D01*
X102996800Y-46537189D01*
X103019337Y-46471054D01*
X103064392Y-46432014D01*
X103241008Y-46342024D01*
X103241007Y-46342024D01*
X103241010Y-46342023D01*
X103400251Y-46226327D01*
X103539433Y-46087145D01*
X103655129Y-45927904D01*
X103744489Y-45752524D01*
X103805314Y-45565325D01*
X103814580Y-45506824D01*
X103836105Y-45370921D01*
X103836105Y-45174076D01*
X103805314Y-44979672D01*
X103757948Y-44833897D01*
X103744489Y-44792474D01*
X103744487Y-44792471D01*
X103744487Y-44792469D01*
X103697348Y-44699954D01*
X103655129Y-44617094D01*
X103539433Y-44457853D01*
X103400251Y-44318671D01*
X103279206Y-44230726D01*
X103241008Y-44202973D01*
X103064392Y-44112984D01*
X103013595Y-44065010D01*
X102996800Y-43997189D01*
X103019337Y-43931054D01*
X103064392Y-43892014D01*
X103241008Y-43802024D01*
X103241007Y-43802024D01*
X103241010Y-43802023D01*
X103400251Y-43686327D01*
X103539433Y-43547145D01*
X103655129Y-43387904D01*
X103744489Y-43212524D01*
X103805314Y-43025325D01*
X103831778Y-42858239D01*
X103836105Y-42830921D01*
X103836105Y-42634076D01*
X103805314Y-42439672D01*
X103744487Y-42252469D01*
X103674722Y-42115548D01*
X103655129Y-42077094D01*
X103539433Y-41917853D01*
X103400251Y-41778671D01*
X103278614Y-41690296D01*
X103241008Y-41662973D01*
X103064392Y-41572984D01*
X103013595Y-41525010D01*
X102996800Y-41457189D01*
X103019337Y-41391054D01*
X103064392Y-41352014D01*
X103241008Y-41262024D01*
X103241007Y-41262024D01*
X103241010Y-41262023D01*
X103400251Y-41146327D01*
X103539433Y-41007145D01*
X103655129Y-40847904D01*
X103744489Y-40672524D01*
X103805314Y-40485325D01*
X103820412Y-40389999D01*
X103836105Y-40290921D01*
X103836105Y-40094076D01*
X103805314Y-39899672D01*
X103762044Y-39766503D01*
X103744489Y-39712474D01*
X103744487Y-39712471D01*
X103744487Y-39712469D01*
X103697348Y-39619954D01*
X103655129Y-39537094D01*
X103539433Y-39377853D01*
X103400251Y-39238671D01*
X103278614Y-39150296D01*
X103241008Y-39122973D01*
X103064392Y-39032984D01*
X103013595Y-38985010D01*
X102996800Y-38917189D01*
X103019337Y-38851054D01*
X103064392Y-38812014D01*
X103241008Y-38722024D01*
X103241007Y-38722024D01*
X103241010Y-38722023D01*
X103400251Y-38606327D01*
X103539433Y-38467145D01*
X103655129Y-38307904D01*
X103744489Y-38132524D01*
X103805314Y-37945325D01*
X103815655Y-37880034D01*
X103836105Y-37750921D01*
X103836105Y-37554076D01*
X103805314Y-37359672D01*
X103755227Y-37205523D01*
X103744489Y-37172474D01*
X103744487Y-37172471D01*
X103744487Y-37172469D01*
X103697348Y-37079954D01*
X103655129Y-36997094D01*
X103539433Y-36837853D01*
X103400251Y-36698671D01*
X103241010Y-36582975D01*
X103218646Y-36571580D01*
X103064391Y-36492983D01*
X103055236Y-36484336D01*
X103043571Y-36479602D01*
X103030318Y-36460802D01*
X103013595Y-36445008D01*
X103010568Y-36432786D01*
X103003314Y-36422496D01*
X103002328Y-36399513D01*
X102996800Y-36377187D01*
X103000861Y-36365269D01*
X103000322Y-36352690D01*
X103011916Y-36332826D01*
X103019337Y-36311052D01*
X103030041Y-36301776D01*
X103035545Y-36292348D01*
X103064391Y-36272013D01*
X103065622Y-36271385D01*
X103065630Y-36271383D01*
X103238803Y-36183146D01*
X103240480Y-36182308D01*
X104172750Y-35725641D01*
X104227298Y-35712999D01*
X104813332Y-35712999D01*
X104813348Y-35713000D01*
X104820944Y-35713000D01*
X104979055Y-35713000D01*
X104979058Y-35713000D01*
X105131786Y-35672076D01*
X105192203Y-35637194D01*
X105268717Y-35593019D01*
X105380521Y-35481215D01*
X105380521Y-35481213D01*
X105390725Y-35471010D01*
X105390729Y-35471005D01*
X106799916Y-34061818D01*
X106861239Y-34028333D01*
X106887597Y-34025499D01*
X107500002Y-34025499D01*
X107500008Y-34025499D01*
X107602797Y-34014999D01*
X107769334Y-33959814D01*
X107918656Y-33867712D01*
X108042712Y-33743656D01*
X108134814Y-33594334D01*
X108189999Y-33427797D01*
X108200500Y-33325009D01*
X108200499Y-32699992D01*
X108200320Y-32698244D01*
X108189999Y-32597203D01*
X108189998Y-32597200D01*
X108179390Y-32565187D01*
X108134814Y-32430666D01*
X108042712Y-32281344D01*
X107948695Y-32187327D01*
X107915210Y-32126004D01*
X107920194Y-32056312D01*
X107948695Y-32011964D01*
X108042317Y-31918342D01*
X108134356Y-31769124D01*
X108134358Y-31769119D01*
X108189505Y-31602697D01*
X108189506Y-31602690D01*
X108199999Y-31499986D01*
X108200000Y-31499973D01*
X108200000Y-31437500D01*
X105800001Y-31437500D01*
X105800001Y-31499986D01*
X105810494Y-31602697D01*
X105865641Y-31769119D01*
X105865643Y-31769124D01*
X105957684Y-31918345D01*
X106051304Y-32011965D01*
X106084789Y-32073288D01*
X106079805Y-32142980D01*
X106051305Y-32187327D01*
X105957287Y-32281345D01*
X105865187Y-32430663D01*
X105865186Y-32430666D01*
X105810001Y-32597203D01*
X105810001Y-32597204D01*
X105810000Y-32597204D01*
X105799500Y-32699983D01*
X105799500Y-33312401D01*
X105779815Y-33379440D01*
X105763181Y-33400082D01*
X104687585Y-34475680D01*
X104626262Y-34509165D01*
X104599904Y-34511999D01*
X104227300Y-34511999D01*
X104172752Y-34499357D01*
X103240463Y-34042679D01*
X103238716Y-34041806D01*
X103064391Y-33952983D01*
X103013595Y-33905008D01*
X102996800Y-33837187D01*
X103019337Y-33771053D01*
X103064392Y-33732013D01*
X103065625Y-33731384D01*
X103065630Y-33731383D01*
X103241010Y-33642023D01*
X103400251Y-33526327D01*
X103539433Y-33387145D01*
X103655129Y-33227904D01*
X103744489Y-33052524D01*
X103805314Y-32865325D01*
X103814898Y-32804815D01*
X103836105Y-32670921D01*
X103836105Y-32474076D01*
X103805314Y-32279672D01*
X103760899Y-32142980D01*
X103744489Y-32092474D01*
X103744487Y-32092471D01*
X103744487Y-32092469D01*
X103684060Y-31973875D01*
X103655129Y-31917094D01*
X103539433Y-31757853D01*
X103400251Y-31618671D01*
X103320630Y-31560823D01*
X103241008Y-31502973D01*
X103064392Y-31412984D01*
X103013595Y-31365010D01*
X102996800Y-31297189D01*
X103019337Y-31231054D01*
X103064392Y-31192014D01*
X103241008Y-31102024D01*
X103241007Y-31102024D01*
X103241010Y-31102023D01*
X103400251Y-30986327D01*
X103511565Y-30875013D01*
X105800000Y-30875013D01*
X105800000Y-30937500D01*
X106750000Y-30937500D01*
X107250000Y-30937500D01*
X108199999Y-30937500D01*
X108199999Y-30875028D01*
X108199998Y-30875013D01*
X108189505Y-30772302D01*
X108134358Y-30605880D01*
X108134356Y-30605875D01*
X108042315Y-30456654D01*
X107918345Y-30332684D01*
X107769124Y-30240643D01*
X107769119Y-30240641D01*
X107602697Y-30185494D01*
X107602690Y-30185493D01*
X107499986Y-30175000D01*
X107250000Y-30175000D01*
X107250000Y-30937500D01*
X106750000Y-30937500D01*
X106750000Y-30175000D01*
X106500029Y-30175000D01*
X106500012Y-30175001D01*
X106397302Y-30185494D01*
X106230880Y-30240641D01*
X106230875Y-30240643D01*
X106081654Y-30332684D01*
X105957684Y-30456654D01*
X105865643Y-30605875D01*
X105865641Y-30605880D01*
X105810494Y-30772302D01*
X105810493Y-30772309D01*
X105800000Y-30875013D01*
X103511565Y-30875013D01*
X103539433Y-30847145D01*
X103655129Y-30687904D01*
X103744489Y-30512524D01*
X103805314Y-30325325D01*
X103818726Y-30240643D01*
X103836105Y-30130921D01*
X103836105Y-29934076D01*
X103805314Y-29739672D01*
X103744487Y-29552469D01*
X103678243Y-29422458D01*
X103655129Y-29377094D01*
X103539433Y-29217853D01*
X103400251Y-29078671D01*
X103241010Y-28962975D01*
X103065634Y-28873616D01*
X102878431Y-28812789D01*
X102684027Y-28781999D01*
X102684022Y-28781999D01*
X100987188Y-28781999D01*
X100987183Y-28781999D01*
X100792778Y-28812789D01*
X100678959Y-28849772D01*
X100662818Y-28855017D01*
X100592978Y-28857012D01*
X100533145Y-28820932D01*
X100502316Y-28758231D01*
X100500500Y-28737086D01*
X100500500Y-28393713D01*
X110649500Y-28393713D01*
X110649500Y-28606286D01*
X110681657Y-28809322D01*
X110682754Y-28816243D01*
X110739308Y-28990298D01*
X110748444Y-29018414D01*
X110844951Y-29207820D01*
X110969890Y-29379786D01*
X111120213Y-29530109D01*
X111292179Y-29655048D01*
X111292181Y-29655049D01*
X111292184Y-29655051D01*
X111481588Y-29751557D01*
X111683757Y-29817246D01*
X111893713Y-29850500D01*
X111893714Y-29850500D01*
X112106286Y-29850500D01*
X112106287Y-29850500D01*
X112316243Y-29817246D01*
X112518412Y-29751557D01*
X112707816Y-29655051D01*
X112811402Y-29579792D01*
X112879786Y-29530109D01*
X112879788Y-29530106D01*
X112879792Y-29530104D01*
X113030104Y-29379792D01*
X113030106Y-29379788D01*
X113030109Y-29379786D01*
X113155048Y-29207820D01*
X113155047Y-29207820D01*
X113155051Y-29207816D01*
X113251557Y-29018412D01*
X113317246Y-28816243D01*
X113350500Y-28606287D01*
X113350500Y-28393713D01*
X113317246Y-28183757D01*
X113251557Y-27981588D01*
X113155051Y-27792184D01*
X113155049Y-27792181D01*
X113155048Y-27792179D01*
X113030109Y-27620213D01*
X112879786Y-27469890D01*
X112707820Y-27344951D01*
X112518414Y-27248444D01*
X112518413Y-27248443D01*
X112518412Y-27248443D01*
X112316243Y-27182754D01*
X112316241Y-27182753D01*
X112316240Y-27182753D01*
X112154957Y-27157208D01*
X112106287Y-27149500D01*
X111893713Y-27149500D01*
X111845042Y-27157208D01*
X111683760Y-27182753D01*
X111481585Y-27248444D01*
X111292179Y-27344951D01*
X111120213Y-27469890D01*
X110969890Y-27620213D01*
X110844951Y-27792179D01*
X110748444Y-27981585D01*
X110682753Y-28183760D01*
X110649500Y-28393713D01*
X100500500Y-28393713D01*
X100500500Y-27504427D01*
X100500816Y-27495581D01*
X100502653Y-27469896D01*
X100515131Y-27295434D01*
X100517646Y-27277938D01*
X100559356Y-27086200D01*
X100564335Y-27069242D01*
X100632911Y-26885382D01*
X100640251Y-26869310D01*
X100734294Y-26697083D01*
X100743850Y-26682214D01*
X100861443Y-26525128D01*
X100873017Y-26511771D01*
X101011771Y-26373017D01*
X101025128Y-26361443D01*
X101182214Y-26243850D01*
X101197083Y-26234294D01*
X101369310Y-26140251D01*
X101385382Y-26132911D01*
X101569242Y-26064335D01*
X101586200Y-26059356D01*
X101777938Y-26017646D01*
X101795436Y-26015130D01*
X101995582Y-26000816D01*
X102004428Y-26000500D01*
X102065892Y-26000500D01*
X112934108Y-26000500D01*
X112995572Y-26000500D01*
X113004418Y-26000816D01*
X113204561Y-26015130D01*
X113222063Y-26017647D01*
X113413795Y-26059355D01*
X113430760Y-26064336D01*
X113614611Y-26132909D01*
X113630694Y-26140253D01*
X113747495Y-26204032D01*
X113802908Y-26234290D01*
X113817791Y-26243855D01*
X113974864Y-26361438D01*
X113988235Y-26373024D01*
X114126975Y-26511764D01*
X114138561Y-26525135D01*
X114256144Y-26682208D01*
X114265709Y-26697091D01*
X114359743Y-26869300D01*
X114367093Y-26885394D01*
X114435661Y-27069234D01*
X114440645Y-27086209D01*
X114482351Y-27277931D01*
X114484869Y-27295442D01*
X114488410Y-27344949D01*
X114497346Y-27469890D01*
X114499184Y-27495580D01*
X114499500Y-27504427D01*
X114499500Y-63995572D01*
X114499184Y-64004419D01*
X114484869Y-64204557D01*
X114482351Y-64222068D01*
X114440645Y-64413790D01*
X114435661Y-64430765D01*
X114367093Y-64614605D01*
X114359743Y-64630699D01*
X114265709Y-64802908D01*
X114256144Y-64817791D01*
X114138561Y-64974864D01*
X114126975Y-64988235D01*
X113988235Y-65126975D01*
X113974864Y-65138561D01*
X113817791Y-65256144D01*
X113802908Y-65265709D01*
X113630699Y-65359743D01*
X113614605Y-65367093D01*
X113430765Y-65435661D01*
X113413790Y-65440645D01*
X113222068Y-65482351D01*
X113204557Y-65484869D01*
X113023779Y-65497799D01*
X113004417Y-65499184D01*
X112995572Y-65499500D01*
X42004428Y-65499500D01*
X41995582Y-65499184D01*
X41973622Y-65497613D01*
X41795442Y-65484869D01*
X41777931Y-65482351D01*
X41586209Y-65440645D01*
X41569234Y-65435661D01*
X41385394Y-65367093D01*
X41369300Y-65359743D01*
X41197091Y-65265709D01*
X41182208Y-65256144D01*
X41025135Y-65138561D01*
X41011764Y-65126975D01*
X40873024Y-64988235D01*
X40861438Y-64974864D01*
X40743855Y-64817791D01*
X40734290Y-64802908D01*
X40640256Y-64630699D01*
X40632909Y-64614611D01*
X40564336Y-64430760D01*
X40559354Y-64413790D01*
X40545586Y-64350500D01*
X40517647Y-64222063D01*
X40515130Y-64204556D01*
X40511589Y-64155051D01*
X40500816Y-64004418D01*
X40500500Y-63995572D01*
X40500500Y-62893713D01*
X41649500Y-62893713D01*
X41649500Y-63106286D01*
X41682753Y-63316239D01*
X41748444Y-63518414D01*
X41844951Y-63707820D01*
X41969890Y-63879786D01*
X42120213Y-64030109D01*
X42292179Y-64155048D01*
X42292181Y-64155049D01*
X42292184Y-64155051D01*
X42481588Y-64251557D01*
X42683757Y-64317246D01*
X42893713Y-64350500D01*
X42893714Y-64350500D01*
X43106286Y-64350500D01*
X43106287Y-64350500D01*
X43316243Y-64317246D01*
X43518412Y-64251557D01*
X43707816Y-64155051D01*
X43729789Y-64139086D01*
X43879786Y-64030109D01*
X43879788Y-64030106D01*
X43879792Y-64030104D01*
X44030104Y-63879792D01*
X44030106Y-63879788D01*
X44030109Y-63879786D01*
X44155048Y-63707820D01*
X44155047Y-63707820D01*
X44155051Y-63707816D01*
X44251557Y-63518412D01*
X44317246Y-63316243D01*
X44350500Y-63106287D01*
X44350500Y-62893713D01*
X110649500Y-62893713D01*
X110649500Y-63106286D01*
X110682753Y-63316239D01*
X110748444Y-63518414D01*
X110844951Y-63707820D01*
X110969890Y-63879786D01*
X111120213Y-64030109D01*
X111292179Y-64155048D01*
X111292181Y-64155049D01*
X111292184Y-64155051D01*
X111481588Y-64251557D01*
X111683757Y-64317246D01*
X111893713Y-64350500D01*
X111893714Y-64350500D01*
X112106286Y-64350500D01*
X112106287Y-64350500D01*
X112316243Y-64317246D01*
X112518412Y-64251557D01*
X112707816Y-64155051D01*
X112729789Y-64139086D01*
X112879786Y-64030109D01*
X112879788Y-64030106D01*
X112879792Y-64030104D01*
X113030104Y-63879792D01*
X113030106Y-63879788D01*
X113030109Y-63879786D01*
X113155048Y-63707820D01*
X113155047Y-63707820D01*
X113155051Y-63707816D01*
X113251557Y-63518412D01*
X113317246Y-63316243D01*
X113350500Y-63106287D01*
X113350500Y-62893713D01*
X113317246Y-62683757D01*
X113251557Y-62481588D01*
X113155051Y-62292184D01*
X113155049Y-62292181D01*
X113155048Y-62292179D01*
X113030109Y-62120213D01*
X112879786Y-61969890D01*
X112707820Y-61844951D01*
X112518414Y-61748444D01*
X112518413Y-61748443D01*
X112518412Y-61748443D01*
X112316243Y-61682754D01*
X112316241Y-61682753D01*
X112316240Y-61682753D01*
X112154957Y-61657208D01*
X112106287Y-61649500D01*
X111893713Y-61649500D01*
X111845042Y-61657208D01*
X111683760Y-61682753D01*
X111481585Y-61748444D01*
X111292179Y-61844951D01*
X111120213Y-61969890D01*
X110969890Y-62120213D01*
X110844951Y-62292179D01*
X110748444Y-62481585D01*
X110682753Y-62683760D01*
X110649500Y-62893713D01*
X44350500Y-62893713D01*
X44317246Y-62683757D01*
X44251557Y-62481588D01*
X44155051Y-62292184D01*
X44155049Y-62292181D01*
X44155048Y-62292179D01*
X44030109Y-62120213D01*
X43879786Y-61969890D01*
X43707820Y-61844951D01*
X43518414Y-61748444D01*
X43518413Y-61748443D01*
X43518412Y-61748443D01*
X43316243Y-61682754D01*
X43316241Y-61682753D01*
X43316240Y-61682753D01*
X43154957Y-61657208D01*
X43106287Y-61649500D01*
X42893713Y-61649500D01*
X42845042Y-61657208D01*
X42683760Y-61682753D01*
X42481585Y-61748444D01*
X42292179Y-61844951D01*
X42120213Y-61969890D01*
X41969890Y-62120213D01*
X41844951Y-62292179D01*
X41748444Y-62481585D01*
X41682753Y-62683760D01*
X41649500Y-62893713D01*
X40500500Y-62893713D01*
X40500500Y-59573920D01*
X79249499Y-59573920D01*
X79278340Y-59718907D01*
X79278343Y-59718917D01*
X79334912Y-59855488D01*
X79334919Y-59855501D01*
X79417048Y-59978415D01*
X79417051Y-59978419D01*
X79521580Y-60082948D01*
X79521584Y-60082951D01*
X79644498Y-60165080D01*
X79644511Y-60165087D01*
X79781082Y-60221656D01*
X79781087Y-60221658D01*
X79781091Y-60221658D01*
X79781092Y-60221659D01*
X79926079Y-60250500D01*
X79926082Y-60250500D01*
X80073920Y-60250500D01*
X80171462Y-60231096D01*
X80218913Y-60221658D01*
X80307560Y-60184938D01*
X80355013Y-60175500D01*
X84966160Y-60175500D01*
X85018520Y-60188614D01*
X85018878Y-60187753D01*
X85024504Y-60190083D01*
X85024505Y-60190084D01*
X85161087Y-60246658D01*
X85161091Y-60246658D01*
X85161092Y-60246659D01*
X85306079Y-60275500D01*
X85306082Y-60275500D01*
X85453920Y-60275500D01*
X85579598Y-60250500D01*
X85598913Y-60246658D01*
X85735495Y-60190084D01*
X85858416Y-60107951D01*
X85962951Y-60003416D01*
X86045084Y-59880495D01*
X86101658Y-59743913D01*
X86130500Y-59598918D01*
X86130500Y-59451082D01*
X86130500Y-59451079D01*
X86101659Y-59306092D01*
X86101658Y-59306091D01*
X86101658Y-59306087D01*
X86091301Y-59281082D01*
X86045087Y-59169511D01*
X86045080Y-59169498D01*
X85962951Y-59046584D01*
X85962948Y-59046580D01*
X85858419Y-58942051D01*
X85858415Y-58942048D01*
X85735501Y-58859919D01*
X85735488Y-58859912D01*
X85598917Y-58803343D01*
X85598907Y-58803340D01*
X85453920Y-58774500D01*
X85453918Y-58774500D01*
X85306082Y-58774500D01*
X85306080Y-58774500D01*
X85161092Y-58803340D01*
X85161082Y-58803343D01*
X85132794Y-58815061D01*
X85085342Y-58824500D01*
X80355013Y-58824500D01*
X80307560Y-58815061D01*
X80279270Y-58803343D01*
X80218913Y-58778342D01*
X80218907Y-58778340D01*
X80073920Y-58749500D01*
X80073918Y-58749500D01*
X79926082Y-58749500D01*
X79926080Y-58749500D01*
X79781092Y-58778340D01*
X79781082Y-58778343D01*
X79644511Y-58834912D01*
X79644498Y-58834919D01*
X79521584Y-58917048D01*
X79521580Y-58917051D01*
X79417051Y-59021580D01*
X79417048Y-59021584D01*
X79334919Y-59144498D01*
X79334912Y-59144511D01*
X79278343Y-59281082D01*
X79278340Y-59281092D01*
X79249500Y-59426079D01*
X79249500Y-59426082D01*
X79249500Y-59573918D01*
X79249500Y-59573920D01*
X79249499Y-59573920D01*
X40500500Y-59573920D01*
X40500500Y-36865793D01*
X70544140Y-36865793D01*
X70544140Y-37023486D01*
X70574901Y-37178129D01*
X70574904Y-37178141D01*
X70635242Y-37323812D01*
X70635249Y-37323825D01*
X70722850Y-37454928D01*
X70722853Y-37454932D01*
X70834347Y-37566426D01*
X70834351Y-37566429D01*
X70965454Y-37654030D01*
X70965467Y-37654037D01*
X71052870Y-37690239D01*
X71111143Y-37714377D01*
X71222356Y-37736498D01*
X71284263Y-37768881D01*
X71285843Y-37770433D01*
X71587843Y-38072433D01*
X71621328Y-38133756D01*
X71621779Y-38135922D01*
X71628340Y-38168907D01*
X71628342Y-38168915D01*
X71684912Y-38305488D01*
X71684919Y-38305501D01*
X71767048Y-38428415D01*
X71767051Y-38428419D01*
X71871580Y-38532948D01*
X71871584Y-38532951D01*
X71994498Y-38615080D01*
X71994511Y-38615087D01*
X72131082Y-38671656D01*
X72131087Y-38671658D01*
X72131091Y-38671658D01*
X72131092Y-38671659D01*
X72276079Y-38700500D01*
X72276082Y-38700500D01*
X72423920Y-38700500D01*
X72521462Y-38681096D01*
X72568913Y-38671658D01*
X72705495Y-38615084D01*
X72828416Y-38532951D01*
X72932951Y-38428416D01*
X73015084Y-38305495D01*
X73025089Y-38281342D01*
X73041248Y-38242330D01*
X73071658Y-38168913D01*
X73092291Y-38065186D01*
X73100500Y-38023920D01*
X73100500Y-37876079D01*
X73071659Y-37731092D01*
X73071658Y-37731091D01*
X73071658Y-37731087D01*
X73015370Y-37595195D01*
X73015087Y-37594511D01*
X73015080Y-37594498D01*
X72932951Y-37471584D01*
X72932948Y-37471580D01*
X72828419Y-37367051D01*
X72828415Y-37367048D01*
X72705501Y-37284919D01*
X72705488Y-37284912D01*
X72568915Y-37228342D01*
X72568907Y-37228340D01*
X72535922Y-37221779D01*
X72474011Y-37189394D01*
X72472433Y-37187843D01*
X72170433Y-36885843D01*
X72136948Y-36824520D01*
X72136527Y-36822504D01*
X72114377Y-36711143D01*
X72072605Y-36610296D01*
X72054037Y-36565467D01*
X72054030Y-36565454D01*
X71966429Y-36434351D01*
X71966426Y-36434347D01*
X71854932Y-36322853D01*
X71854928Y-36322850D01*
X71723825Y-36235249D01*
X71723812Y-36235242D01*
X71578141Y-36174904D01*
X71578129Y-36174901D01*
X71423485Y-36144140D01*
X71423482Y-36144140D01*
X71265798Y-36144140D01*
X71265795Y-36144140D01*
X71111150Y-36174901D01*
X71111138Y-36174904D01*
X70965467Y-36235242D01*
X70965454Y-36235249D01*
X70834351Y-36322850D01*
X70834347Y-36322853D01*
X70722853Y-36434347D01*
X70722850Y-36434351D01*
X70635249Y-36565454D01*
X70635242Y-36565467D01*
X70574904Y-36711138D01*
X70574901Y-36711150D01*
X70544140Y-36865793D01*
X40500500Y-36865793D01*
X40500500Y-28393713D01*
X41649500Y-28393713D01*
X41649500Y-28606286D01*
X41681657Y-28809322D01*
X41682754Y-28816243D01*
X41739308Y-28990298D01*
X41748444Y-29018414D01*
X41844951Y-29207820D01*
X41969890Y-29379786D01*
X42120213Y-29530109D01*
X42292179Y-29655048D01*
X42292181Y-29655049D01*
X42292184Y-29655051D01*
X42481588Y-29751557D01*
X42683757Y-29817246D01*
X42893713Y-29850500D01*
X42893714Y-29850500D01*
X43106286Y-29850500D01*
X43106287Y-29850500D01*
X43316243Y-29817246D01*
X43518412Y-29751557D01*
X43707816Y-29655051D01*
X43811402Y-29579792D01*
X43879786Y-29530109D01*
X43879788Y-29530106D01*
X43879792Y-29530104D01*
X44030104Y-29379792D01*
X44030106Y-29379788D01*
X44030109Y-29379786D01*
X44155048Y-29207820D01*
X44155047Y-29207820D01*
X44155051Y-29207816D01*
X44251557Y-29018412D01*
X44317246Y-28816243D01*
X44350500Y-28606287D01*
X44350500Y-28393713D01*
X44317246Y-28183757D01*
X44251557Y-27981588D01*
X44155051Y-27792184D01*
X44155049Y-27792181D01*
X44155048Y-27792179D01*
X44030109Y-27620213D01*
X43879786Y-27469890D01*
X43707820Y-27344951D01*
X43518414Y-27248444D01*
X43518413Y-27248443D01*
X43518412Y-27248443D01*
X43316243Y-27182754D01*
X43316241Y-27182753D01*
X43316240Y-27182753D01*
X43154957Y-27157208D01*
X43106287Y-27149500D01*
X42893713Y-27149500D01*
X42845042Y-27157208D01*
X42683760Y-27182753D01*
X42481585Y-27248444D01*
X42292179Y-27344951D01*
X42120213Y-27469890D01*
X41969890Y-27620213D01*
X41844951Y-27792179D01*
X41748444Y-27981585D01*
X41682753Y-28183760D01*
X41649500Y-28393713D01*
X40500500Y-28393713D01*
X40500500Y-27504427D01*
X40500816Y-27495581D01*
X40502653Y-27469896D01*
X40515131Y-27295434D01*
X40517646Y-27277938D01*
X40559356Y-27086200D01*
X40564335Y-27069242D01*
X40632911Y-26885382D01*
X40640251Y-26869310D01*
X40734294Y-26697083D01*
X40743850Y-26682214D01*
X40861443Y-26525128D01*
X40873017Y-26511771D01*
X41011771Y-26373017D01*
X41025128Y-26361443D01*
X41182214Y-26243850D01*
X41197083Y-26234294D01*
X41369310Y-26140251D01*
X41385382Y-26132911D01*
X41569242Y-26064335D01*
X41586200Y-26059356D01*
X41777938Y-26017646D01*
X41795436Y-26015130D01*
X41995582Y-26000816D01*
X42004428Y-26000500D01*
X42065892Y-26000500D01*
X84934108Y-26000500D01*
X84995572Y-26000500D01*
X85004418Y-26000816D01*
G37*
%TD.AperFunction*%
%TA.AperFunction,Conductor*%
G36*
X100022550Y-33530576D02*
G01*
X100580772Y-33720178D01*
X100597176Y-33727100D01*
X100605580Y-33731383D01*
X100605584Y-33731384D01*
X100606820Y-33732014D01*
X100657615Y-33779989D01*
X100674409Y-33847811D01*
X100651870Y-33913945D01*
X100606818Y-33952983D01*
X100430199Y-34042975D01*
X100270960Y-34158670D01*
X100131774Y-34297855D01*
X100105272Y-34334331D01*
X100092402Y-34349359D01*
X99329448Y-35108227D01*
X99292326Y-35149441D01*
X99289718Y-35152986D01*
X99277532Y-35167165D01*
X96675307Y-37769390D01*
X96675304Y-37769394D01*
X96601383Y-37880024D01*
X96601378Y-37880034D01*
X96550458Y-38002965D01*
X96550457Y-38002967D01*
X96537421Y-38068504D01*
X96505035Y-38130414D01*
X96500111Y-38135242D01*
X96491217Y-38143487D01*
X96468844Y-38157288D01*
X96373535Y-38252596D01*
X96371806Y-38254200D01*
X96342543Y-38268771D01*
X96313856Y-38284435D01*
X96311434Y-38284261D01*
X96309261Y-38285344D01*
X96276775Y-38281783D01*
X96244165Y-38279451D01*
X96241834Y-38277953D01*
X96239808Y-38277731D01*
X96233324Y-38272484D01*
X96199818Y-38250950D01*
X96106157Y-38157289D01*
X96106156Y-38157288D01*
X96008458Y-38097028D01*
X95956836Y-38065187D01*
X95956831Y-38065185D01*
X95955362Y-38064698D01*
X95790297Y-38010001D01*
X95790295Y-38010000D01*
X95687510Y-37999500D01*
X95062498Y-37999500D01*
X95062480Y-37999501D01*
X94959703Y-38010000D01*
X94959700Y-38010001D01*
X94793168Y-38065185D01*
X94793163Y-38065187D01*
X94643842Y-38157289D01*
X94519789Y-38281342D01*
X94427687Y-38430663D01*
X94427686Y-38430666D01*
X94372501Y-38597203D01*
X94372501Y-38597204D01*
X94372500Y-38597204D01*
X94362000Y-38699983D01*
X94362000Y-39700001D01*
X94362001Y-39700019D01*
X94372500Y-39802796D01*
X94372501Y-39802799D01*
X94427685Y-39969331D01*
X94427686Y-39969334D01*
X94519547Y-40118266D01*
X94519789Y-40118657D01*
X94638181Y-40237049D01*
X94671666Y-40298372D01*
X94674500Y-40324730D01*
X94674500Y-41751756D01*
X94657233Y-41814876D01*
X94598254Y-41914605D01*
X94598254Y-41914606D01*
X94552402Y-42072426D01*
X94552401Y-42072432D01*
X94549500Y-42109298D01*
X94549500Y-43415701D01*
X94552401Y-43452567D01*
X94552402Y-43452573D01*
X94598254Y-43610393D01*
X94598255Y-43610396D01*
X94681917Y-43751862D01*
X94681923Y-43751870D01*
X94686622Y-43756569D01*
X94720107Y-43817892D01*
X94715123Y-43887584D01*
X94673251Y-43943517D01*
X94607787Y-43967934D01*
X94598941Y-43968250D01*
X93444933Y-43968250D01*
X93377894Y-43948565D01*
X93332139Y-43895761D01*
X93325857Y-43878846D01*
X93301745Y-43795854D01*
X93301744Y-43795853D01*
X93301744Y-43795852D01*
X93218081Y-43654385D01*
X93218079Y-43654383D01*
X93218076Y-43654379D01*
X93101870Y-43538173D01*
X93101862Y-43538167D01*
X92960396Y-43454505D01*
X92960393Y-43454504D01*
X92802573Y-43408652D01*
X92802567Y-43408651D01*
X92765701Y-43405750D01*
X92765694Y-43405750D01*
X92524500Y-43405750D01*
X92457461Y-43386065D01*
X92411706Y-43333261D01*
X92400500Y-43281750D01*
X92400500Y-42115563D01*
X92400499Y-42115548D01*
X92400012Y-42109365D01*
X92397598Y-42078681D01*
X92395805Y-42072510D01*
X92351745Y-41920856D01*
X92351745Y-41920855D01*
X92351744Y-41920854D01*
X92351744Y-41920852D01*
X92292767Y-41821126D01*
X92275500Y-41758006D01*
X92275500Y-39433468D01*
X92272234Y-39417051D01*
X92268253Y-39397036D01*
X92249541Y-39302964D01*
X92198914Y-39180742D01*
X92198750Y-39180224D01*
X92124698Y-39069398D01*
X92124697Y-39069397D01*
X92124695Y-39069394D01*
X92030606Y-38975305D01*
X90711819Y-37656518D01*
X90678334Y-37595195D01*
X90675500Y-37568837D01*
X90675500Y-36392948D01*
X90695185Y-36325909D01*
X90747989Y-36280154D01*
X90760488Y-36275244D01*
X90769334Y-36272314D01*
X90918656Y-36180212D01*
X91042712Y-36056156D01*
X91134814Y-35906834D01*
X91189999Y-35740297D01*
X91200500Y-35637509D01*
X91200500Y-35637486D01*
X92200001Y-35637486D01*
X92210494Y-35740197D01*
X92265641Y-35906619D01*
X92265643Y-35906624D01*
X92357684Y-36055845D01*
X92481654Y-36179815D01*
X92630875Y-36271856D01*
X92630880Y-36271858D01*
X92797302Y-36327005D01*
X92797309Y-36327006D01*
X92900019Y-36337499D01*
X93149999Y-36337499D01*
X93650000Y-36337499D01*
X93899972Y-36337499D01*
X93899986Y-36337498D01*
X94002697Y-36327005D01*
X94169119Y-36271858D01*
X94169124Y-36271856D01*
X94318345Y-36179815D01*
X94442315Y-36055845D01*
X94534356Y-35906624D01*
X94534358Y-35906619D01*
X94589505Y-35740197D01*
X94589506Y-35740190D01*
X94593614Y-35699986D01*
X95575001Y-35699986D01*
X95585494Y-35802697D01*
X95640641Y-35969119D01*
X95640643Y-35969124D01*
X95732684Y-36118345D01*
X95856654Y-36242315D01*
X96005875Y-36334356D01*
X96005880Y-36334358D01*
X96172302Y-36389505D01*
X96172309Y-36389506D01*
X96275019Y-36399999D01*
X96549999Y-36399999D01*
X97050000Y-36399999D01*
X97324972Y-36399999D01*
X97324986Y-36399998D01*
X97427697Y-36389505D01*
X97594119Y-36334358D01*
X97594124Y-36334356D01*
X97743345Y-36242315D01*
X97867315Y-36118345D01*
X97959356Y-35969124D01*
X97959358Y-35969119D01*
X98014505Y-35802697D01*
X98014506Y-35802690D01*
X98024999Y-35699986D01*
X98025000Y-35699973D01*
X98025000Y-35650000D01*
X97050000Y-35650000D01*
X97050000Y-36399999D01*
X96549999Y-36399999D01*
X96550000Y-36399998D01*
X96550000Y-35650000D01*
X95575001Y-35650000D01*
X95575001Y-35699986D01*
X94593614Y-35699986D01*
X94599999Y-35637486D01*
X94600000Y-35637473D01*
X94600000Y-35575000D01*
X93650000Y-35575000D01*
X93650000Y-36337499D01*
X93149999Y-36337499D01*
X93150000Y-36337498D01*
X93150000Y-35575000D01*
X92200001Y-35575000D01*
X92200001Y-35637486D01*
X91200500Y-35637486D01*
X91200499Y-35319481D01*
X91200499Y-35012498D01*
X91200498Y-35012480D01*
X91189999Y-34909703D01*
X91189998Y-34909700D01*
X91169220Y-34846996D01*
X91134814Y-34743166D01*
X91042712Y-34593844D01*
X90949049Y-34500181D01*
X90945178Y-34493092D01*
X90938638Y-34488354D01*
X90928675Y-34462870D01*
X90915564Y-34438858D01*
X90916140Y-34430803D01*
X90913199Y-34423280D01*
X90918596Y-34396454D01*
X90920548Y-34369166D01*
X90925741Y-34360944D01*
X90926981Y-34354783D01*
X90945619Y-34329475D01*
X90947688Y-34326201D01*
X90948348Y-34325519D01*
X91042712Y-34231156D01*
X91047801Y-34222904D01*
X91057206Y-34213201D01*
X91076326Y-34202368D01*
X91092665Y-34187675D01*
X91108689Y-34184033D01*
X91117997Y-34178761D01*
X91129155Y-34179383D01*
X91146248Y-34175500D01*
X92253752Y-34175500D01*
X92320791Y-34195185D01*
X92351531Y-34226497D01*
X92352807Y-34225489D01*
X92357288Y-34231156D01*
X92451304Y-34325172D01*
X92484789Y-34386495D01*
X92479805Y-34456187D01*
X92451305Y-34500534D01*
X92357682Y-34594157D01*
X92265643Y-34743375D01*
X92265641Y-34743380D01*
X92210494Y-34909802D01*
X92210493Y-34909809D01*
X92200000Y-35012513D01*
X92200000Y-35075000D01*
X94599999Y-35075000D01*
X94599999Y-35012528D01*
X94599998Y-35012513D01*
X94589505Y-34909802D01*
X94534358Y-34743380D01*
X94534356Y-34743375D01*
X94442315Y-34594154D01*
X94348695Y-34500534D01*
X94344822Y-34493442D01*
X94338280Y-34488702D01*
X94328321Y-34463222D01*
X94315210Y-34439211D01*
X94315786Y-34431151D01*
X94312845Y-34423626D01*
X94318242Y-34396806D01*
X94320194Y-34369519D01*
X94325389Y-34361294D01*
X94326630Y-34355130D01*
X94345280Y-34329807D01*
X94347338Y-34326550D01*
X94347969Y-34325898D01*
X94442712Y-34231156D01*
X94447803Y-34222901D01*
X94457210Y-34213197D01*
X94476328Y-34202367D01*
X94492665Y-34187675D01*
X94508693Y-34184032D01*
X94518004Y-34178759D01*
X94529161Y-34179382D01*
X94546248Y-34175500D01*
X95638132Y-34175500D01*
X95705171Y-34195185D01*
X95726346Y-34214383D01*
X95727181Y-34213549D01*
X95732288Y-34218656D01*
X95856344Y-34342712D01*
X95859628Y-34344737D01*
X95859653Y-34344753D01*
X95861445Y-34346746D01*
X95862011Y-34347193D01*
X95861934Y-34347289D01*
X95906379Y-34396699D01*
X95917603Y-34465661D01*
X95889761Y-34529744D01*
X95859665Y-34555826D01*
X95856660Y-34557679D01*
X95856655Y-34557683D01*
X95732684Y-34681654D01*
X95640643Y-34830875D01*
X95640641Y-34830880D01*
X95585494Y-34997302D01*
X95585493Y-34997309D01*
X95575000Y-35100013D01*
X95575000Y-35150000D01*
X98024999Y-35150000D01*
X98024999Y-35100028D01*
X98024998Y-35100013D01*
X98014505Y-34997302D01*
X97959358Y-34830880D01*
X97959356Y-34830875D01*
X97867315Y-34681654D01*
X97743344Y-34557683D01*
X97743341Y-34557681D01*
X97740339Y-34555829D01*
X97738713Y-34554021D01*
X97737677Y-34553202D01*
X97737817Y-34553024D01*
X97693617Y-34503880D01*
X97682397Y-34434917D01*
X97710243Y-34370836D01*
X97719381Y-34361019D01*
X97728984Y-34351761D01*
X97743656Y-34342712D01*
X97867712Y-34218656D01*
X97868662Y-34217115D01*
X97875809Y-34210226D01*
X97899661Y-34197763D01*
X97921625Y-34182212D01*
X97933086Y-34180300D01*
X97937736Y-34177871D01*
X97944177Y-34178450D01*
X97961868Y-34175500D01*
X99066532Y-34175500D01*
X99066533Y-34175499D01*
X99197036Y-34149541D01*
X99319969Y-34098620D01*
X99430606Y-34024695D01*
X99894994Y-33560305D01*
X99956314Y-33526823D01*
X100022550Y-33530576D01*
G37*
%TD.AperFunction*%
%TD*%
%TA.AperFunction,Conductor*%
%TO.N,GPIO12*%
G36*
X85788476Y-35138853D02*
G01*
X85796375Y-35143069D01*
X85799010Y-35149734D01*
X85846551Y-35877408D01*
X85843671Y-35885887D01*
X85835639Y-35889846D01*
X85834922Y-35889871D01*
X83280733Y-35899953D01*
X83272447Y-35896559D01*
X83268987Y-35888299D01*
X83268987Y-35702658D01*
X83270136Y-35697602D01*
X83635217Y-34935748D01*
X83641881Y-34929769D01*
X83646906Y-34929161D01*
X85788476Y-35138853D01*
G37*
%TD.AperFunction*%
%TD*%
%TA.AperFunction,Conductor*%
%TO.N,GPIO4*%
G36*
X100675569Y-31957749D02*
G01*
X101132897Y-32567241D01*
X101135122Y-32575915D01*
X101134841Y-32577287D01*
X100942517Y-33296014D01*
X100937068Y-33303121D01*
X100928191Y-33304292D01*
X100927452Y-33304068D01*
X99822259Y-32928685D01*
X99817749Y-32925880D01*
X99582281Y-32690412D01*
X99578854Y-32682139D01*
X99582281Y-32673866D01*
X99584062Y-32672405D01*
X99741750Y-32567241D01*
X100659720Y-31955036D01*
X100668504Y-31953298D01*
X100675569Y-31957749D01*
G37*
%TD.AperFunction*%
%TD*%
%TA.AperFunction,Conductor*%
%TO.N,GPIO3*%
G36*
X100675936Y-34498426D02*
G01*
X100676999Y-34499655D01*
X101132897Y-35107241D01*
X101135122Y-35115915D01*
X101134841Y-35117287D01*
X100941920Y-35838247D01*
X100936471Y-35845354D01*
X100929179Y-35846834D01*
X99929110Y-35722861D01*
X99922276Y-35719523D01*
X99685928Y-35483175D01*
X99682501Y-35474902D01*
X99685928Y-35466629D01*
X100659391Y-34498381D01*
X100667672Y-34494977D01*
X100675936Y-34498426D01*
G37*
%TD.AperFunction*%
%TD*%
%TA.AperFunction,Conductor*%
%TO.N,GPIO3*%
G36*
X103006588Y-34491006D02*
G01*
X104064641Y-35009289D01*
X104070563Y-35016006D01*
X104071194Y-35019796D01*
X104071194Y-35205201D01*
X104067767Y-35213474D01*
X104064641Y-35215708D01*
X103006588Y-35733991D01*
X102997736Y-35734582D01*
X101167843Y-35123597D01*
X101161081Y-35117726D01*
X101160450Y-35108794D01*
X101166321Y-35102032D01*
X101167843Y-35101401D01*
X101443717Y-35009289D01*
X102997736Y-34490415D01*
X103006588Y-34491006D01*
G37*
%TD.AperFunction*%
%TD*%
M02*
