%TF.GenerationSoftware,KiCad,Pcbnew,9.0.8-9.0.8~ubuntu24.04.1*%
%TF.CreationDate,2026-05-07T18:21:45+02:00*%
%TF.ProjectId,caelum_v2,6361656c-756d-45f7-9632-2e6b69636164,rev?*%
%TF.SameCoordinates,Original*%
%TF.FileFunction,Paste,Top*%
%TF.FilePolarity,Positive*%
%FSLAX46Y46*%
G04 Gerber Fmt 4.6, Leading zero omitted, Abs format (unit mm)*
G04 Created by KiCad (PCBNEW 9.0.8-9.0.8~ubuntu24.04.1) date 2026-05-07 18:21:45*
%MOMM*%
%LPD*%
G01*
G04 APERTURE LIST*
G04 Aperture macros list*
%AMRoundRect*
0 Rectangle with rounded corners*
0 $1 Rounding radius*
0 $2 $3 $4 $5 $6 $7 $8 $9 X,Y pos of 4 corners*
0 Add a 4 corners polygon primitive as box body*
4,1,4,$2,$3,$4,$5,$6,$7,$8,$9,$2,$3,0*
0 Add four circle primitives for the rounded corners*
1,1,$1+$1,$2,$3*
1,1,$1+$1,$4,$5*
1,1,$1+$1,$6,$7*
1,1,$1+$1,$8,$9*
0 Add four rect primitives between the rounded corners*
20,1,$1+$1,$2,$3,$4,$5,0*
20,1,$1+$1,$4,$5,$6,$7,0*
20,1,$1+$1,$6,$7,$8,$9,0*
20,1,$1+$1,$8,$9,$2,$3,0*%
G04 Aperture macros list end*
%ADD10RoundRect,0.250000X0.475000X-0.250000X0.475000X0.250000X-0.475000X0.250000X-0.475000X-0.250000X0*%
%ADD11RoundRect,0.250000X-0.475000X0.250000X-0.475000X-0.250000X0.475000X-0.250000X0.475000X0.250000X0*%
%ADD12RoundRect,0.087500X-0.125000X-0.087500X0.125000X-0.087500X0.125000X0.087500X-0.125000X0.087500X0*%
%ADD13RoundRect,0.087500X-0.087500X-0.125000X0.087500X-0.125000X0.087500X0.125000X-0.087500X0.125000X0*%
%ADD14RoundRect,0.250000X0.450000X-0.262500X0.450000X0.262500X-0.450000X0.262500X-0.450000X-0.262500X0*%
%ADD15RoundRect,0.250000X-0.450000X0.262500X-0.450000X-0.262500X0.450000X-0.262500X0.450000X0.262500X0*%
%ADD16RoundRect,0.250000X0.250000X2.500000X-0.250000X2.500000X-0.250000X-2.500000X0.250000X-2.500000X0*%
%ADD17RoundRect,0.250000X0.550000X1.250000X-0.550000X1.250000X-0.550000X-1.250000X0.550000X-1.250000X0*%
%ADD18RoundRect,0.250000X-0.262500X-0.450000X0.262500X-0.450000X0.262500X0.450000X-0.262500X0.450000X0*%
%ADD19RoundRect,0.375000X-0.375000X0.625000X-0.375000X-0.625000X0.375000X-0.625000X0.375000X0.625000X0*%
%ADD20RoundRect,0.500000X-1.400000X0.500000X-1.400000X-0.500000X1.400000X-0.500000X1.400000X0.500000X0*%
%ADD21RoundRect,0.250000X-2.500000X0.250000X-2.500000X-0.250000X2.500000X-0.250000X2.500000X0.250000X0*%
%ADD22RoundRect,0.250000X-1.250000X0.550000X-1.250000X-0.550000X1.250000X-0.550000X1.250000X0.550000X0*%
%ADD23RoundRect,0.250000X0.250000X1.500000X-0.250000X1.500000X-0.250000X-1.500000X0.250000X-1.500000X0*%
%ADD24RoundRect,0.250001X0.499999X1.449999X-0.499999X1.449999X-0.499999X-1.449999X0.499999X-1.449999X0*%
%ADD25RoundRect,0.250000X2.500000X-0.250000X2.500000X0.250000X-2.500000X0.250000X-2.500000X-0.250000X0*%
%ADD26RoundRect,0.250000X1.250000X-0.550000X1.250000X0.550000X-1.250000X0.550000X-1.250000X-0.550000X0*%
%ADD27RoundRect,0.150000X0.512500X0.150000X-0.512500X0.150000X-0.512500X-0.150000X0.512500X-0.150000X0*%
%ADD28RoundRect,0.250000X1.500000X-0.250000X1.500000X0.250000X-1.500000X0.250000X-1.500000X-0.250000X0*%
%ADD29RoundRect,0.250001X1.449999X-0.499999X1.449999X0.499999X-1.449999X0.499999X-1.449999X-0.499999X0*%
%ADD30RoundRect,0.050000X-0.730000X-0.150000X0.730000X-0.150000X0.730000X0.150000X-0.730000X0.150000X0*%
G04 APERTURE END LIST*
D10*
%TO.C,C10*%
X71950000Y-33500000D03*
X71950000Y-31600000D03*
%TD*%
D11*
%TO.C,C7*%
X75000000Y-43550000D03*
X75000000Y-45450000D03*
%TD*%
D12*
%TO.C,U5*%
X74437500Y-36700000D03*
X74437500Y-37200000D03*
D13*
X74700000Y-37712500D03*
X75200000Y-37712500D03*
X75700000Y-37712500D03*
D12*
X75962500Y-37200000D03*
X75962500Y-36700000D03*
D13*
X75700000Y-36187500D03*
X75200000Y-36187500D03*
X74700000Y-36187500D03*
%TD*%
D10*
%TO.C,C4*%
X54800000Y-54700000D03*
X54800000Y-52800000D03*
%TD*%
D14*
%TO.C,R6*%
X77500000Y-29912500D03*
X77500000Y-28087500D03*
%TD*%
D15*
%TO.C,R2*%
X87000000Y-54500000D03*
X87000000Y-56325000D03*
%TD*%
D10*
%TO.C,C5*%
X58750000Y-54700000D03*
X58750000Y-52800000D03*
%TD*%
D16*
%TO.C,J5*%
X97475000Y-58550000D03*
X95475000Y-58550000D03*
X93475000Y-58550000D03*
D17*
X99875000Y-60800000D03*
X91075000Y-60800000D03*
%TD*%
D11*
%TO.C,C6*%
X79000000Y-43550000D03*
X79000000Y-45450000D03*
%TD*%
D10*
%TO.C,C13*%
X106300000Y-48900000D03*
X106300000Y-47000000D03*
%TD*%
D18*
%TO.C,R3*%
X100975000Y-54200000D03*
X102800000Y-54200000D03*
%TD*%
D10*
%TO.C,C2*%
X57000000Y-60400000D03*
X57000000Y-58500000D03*
%TD*%
D11*
%TO.C,C1*%
X73775000Y-58250000D03*
X73775000Y-60150000D03*
%TD*%
D19*
%TO.C,U2*%
X67800000Y-53350000D03*
X65500000Y-53350000D03*
D20*
X65500000Y-59650000D03*
D19*
X63200000Y-53350000D03*
%TD*%
D18*
%TO.C,R8*%
X70800000Y-39975000D03*
X72625000Y-39975000D03*
%TD*%
D21*
%TO.C,J8*%
X109225000Y-52350000D03*
X109225000Y-54350000D03*
X109225000Y-56350000D03*
D22*
X111475000Y-49950000D03*
X111475000Y-58750000D03*
%TD*%
D23*
%TO.C,J4*%
X46000000Y-56350000D03*
X44000000Y-56350000D03*
D24*
X48350000Y-50600000D03*
X41650000Y-50600000D03*
%TD*%
D10*
%TO.C,C8*%
X104750000Y-58700000D03*
X104750000Y-56800000D03*
%TD*%
D15*
%TO.C,R1*%
X73750000Y-52375000D03*
X73750000Y-54200000D03*
%TD*%
%TO.C,R7*%
X78500000Y-33500000D03*
X78500000Y-35325000D03*
%TD*%
D10*
%TO.C,C11*%
X68700000Y-33550000D03*
X68700000Y-31650000D03*
%TD*%
D23*
%TO.C,J7*%
X61350000Y-33950000D03*
X59350000Y-33950000D03*
X57350000Y-33950000D03*
X55350000Y-33950000D03*
D24*
X63700000Y-28200000D03*
X53000000Y-28200000D03*
%TD*%
D25*
%TO.C,J1*%
X61950000Y-46975000D03*
X61950000Y-44975000D03*
X61950000Y-42975000D03*
D26*
X59700000Y-49375000D03*
X59700000Y-40575000D03*
%TD*%
D10*
%TO.C,C3*%
X71000000Y-52200000D03*
X71000000Y-50300000D03*
%TD*%
D27*
%TO.C,U1*%
X82025000Y-54100000D03*
X82025000Y-53150000D03*
X82025000Y-52200000D03*
X79750000Y-52200000D03*
X79750000Y-53150000D03*
X79750000Y-54100000D03*
%TD*%
D28*
%TO.C,J2*%
X106675000Y-42000000D03*
X106675000Y-40000000D03*
X106675000Y-38000000D03*
X106675000Y-36000000D03*
D29*
X112425000Y-44350000D03*
X112425000Y-33650000D03*
%TD*%
D30*
%TO.C,Q1*%
X79620000Y-59525000D03*
X79620000Y-60175000D03*
X79620000Y-60825000D03*
X79620000Y-61475000D03*
X85380000Y-61475000D03*
X85380000Y-60825000D03*
X85380000Y-60175000D03*
X85380000Y-59525000D03*
%TD*%
M02*
